<?xml version="1.0" standalone="no"?>
<!DOCTYPE svg PUBLIC "-//W3C//DTD SVG 1.1//EN" "http://www.w3.org/Graphics/SVG/1.1/DTD/svg11.dtd" >
<svg xmlns="http://www.w3.org/2000/svg">
<metadata>
<json>
<![CDATA[
{
	"copyright": "2015",
	"description": "ReadMe Iconography\nFont generated by IcoMoon.",
	"designer": "",
	"designerURL": "",
	"fontFamily": "ReadMe-Icons",
	"fontURL": "http://readme.io",
	"majorVersion": 1,
	"minorVersion": 0,
	"version": "Version 1.0",
	"fontId": "ReadMe-Icons",
	"psName": "ReadMe-Icons",
	"subFamily": "Regular",
	"fullName": "ReadMe-Icons"
}
]]>
</json>
</metadata>
<defs>
<font id="ReadMe-Icons" horiz-adv-x="1024">
<font-face units-per-em="1024" ascent="960" descent="-64" />
<missing-glyph horiz-adv-x="1024" />
<glyph unicode="&#x20;" horiz-adv-x="512" d="" />
<glyph unicode="&#xe900;" glyph-name="landing-page" data-tags="ReadMe, Icon, Home" d="M998.4-0.051h-25.958v423.475c15.36 8.653 28.518 21.146 38.042 36.915 18.79 31.13 20.019 69.069 3.174 101.376l-139.776 269.466c-12.39 23.859-36.762 38.707-63.744 38.707h-93.594v77.414c0 14.131-11.469 25.6-25.6 25.6h-153.242c-14.131 0-25.6-11.469-25.6-25.6v-77.414h-247.347c-26.931 0-51.354-14.848-63.795-38.707l-140.288-270.336c-16.589-32.154-15.411-69.837 3.328-100.813 9.574-15.872 22.886-28.365 38.502-36.915v-423.168h-25.6c-14.131 0-25.6-11.469-25.6-25.6s11.469-25.6 25.6-25.6h47.002c1.434-0.256 2.714-0.87 4.198-0.87s2.816 0.614 4.198 0.87h810.342c1.434-0.256 2.714-0.87 4.198-0.87s2.816 0.614 4.198 0.87h47.36c14.131 0 25.6 11.469 25.6 25.6s-11.469 25.6-25.6 25.6zM106.189 537.242l140.288 270.336c3.533 6.861 10.547 11.11 18.278 11.11h266.291c1.587 0 2.918 0.614 4.403 0.87 0.768-0.051 1.434-0.461 2.202-0.461 14.131 0 25.6 11.469 25.6 25.6v77.005h102.042v-179.098c0-14.131 11.469-25.6 25.6-25.6s25.6 11.469 25.6 25.6v76.083h93.594c7.731 0 14.746-4.25 18.33-11.11l139.776-269.466c8.448-16.333 7.834-35.584-1.638-51.354-9.574-15.821-26.266-25.293-44.544-25.446-22.323 0-44.288 13.824-52.531 32.307-1.229 3.84-3.533 7.219-6.4 10.138-0.666 0.717-1.587 1.178-2.304 1.792-1.382 1.126-2.56 2.458-4.198 3.277-0.256 0.102-0.512 0.102-0.717 0.205-6.246 3.123-13.568 3.942-20.582 1.229-7.322-2.816-12.288-8.704-14.643-15.565-9.677-17.51-28.774-34.406-52.224-34.406-24.627 0-44.851 18.534-53.965 36.966-0.461 0.973-1.331 1.587-1.894 2.458-0.973 1.485-1.946 2.867-3.174 4.096s-2.56 2.15-3.994 3.123c-0.87 0.614-1.536 1.434-2.509 1.946-0.563 0.256-1.178 0.205-1.741 0.461-1.587 0.666-3.174 0.973-4.864 1.28-1.587 0.307-3.123 0.614-4.71 0.614-1.638 0-3.226-0.358-4.915-0.666-1.638-0.307-3.174-0.614-4.71-1.229-0.563-0.256-1.178-0.205-1.741-0.461-1.024-0.512-1.638-1.382-2.56-1.946-1.434-0.922-2.765-1.843-3.994-3.072-1.28-1.28-2.202-2.611-3.174-4.096-0.563-0.87-1.434-1.485-1.894-2.458-9.114-18.381-29.286-36.966-53.914-36.966s-44.851 18.534-53.965 36.966c-0.461 0.973-1.331 1.587-1.894 2.458-0.973 1.485-1.894 2.816-3.174 4.096-1.28 1.178-2.662 2.15-4.198 3.123-0.819 0.563-1.434 1.331-2.355 1.792-0.512 0.256-1.075 0.205-1.536 0.41-1.741 0.717-3.533 1.075-5.427 1.434-1.434 0.256-2.816 0.563-4.25 0.563-1.741 0-3.379-0.358-5.069-0.666-1.638-0.307-3.174-0.614-4.659-1.229-0.563-0.256-1.178-0.205-1.741-0.461-1.024-0.512-1.638-1.382-2.56-1.946-1.434-0.922-2.765-1.843-3.942-3.072-1.28-1.28-2.253-2.662-3.277-4.198-0.563-0.87-1.382-1.434-1.843-2.406-8.806-17.818-29.44-36.966-53.914-36.966s-45.107 19.149-53.914 36.966c-0.461 0.973-1.28 1.536-1.843 2.406-0.973 1.485-1.946 2.867-3.174 4.147-1.331 1.28-2.714 2.253-4.25 3.226-0.819 0.563-1.382 1.382-2.304 1.843-0.512 0.256-1.024 0.205-1.536 0.41-1.792 0.717-3.584 1.075-5.478 1.382-1.434 0.256-2.765 0.563-4.198 0.563-1.741 0-3.379-0.358-5.069-0.666-1.638-0.307-3.174-0.614-4.71-1.229-0.563-0.256-1.178-0.205-1.741-0.461-1.024-0.512-1.638-1.382-2.56-1.997-1.382-0.922-2.714-1.843-3.891-3.021-1.331-1.331-2.304-2.714-3.277-4.25-0.563-0.819-1.382-1.434-1.843-2.355-8.806-17.818-29.44-36.966-53.914-36.966-23.962 0-44.032 18.278-53.146 35.738-2.611 6.298-7.526 11.571-14.387 14.234-10.291 3.942-21.504 0.614-28.365-7.322-0.87-0.922-1.331-2.099-1.997-3.123-0.922-1.434-2.099-2.611-2.714-4.25-7.475-19.456-30.566-34.15-54.528-34.15-18.278 0.154-34.765 9.472-44.237 25.139-9.37 15.616-9.984 34.611-1.587 50.739zM153.702 410.266c29.44 0.256 56.883 13.107 76.851 32.819 20.787-20.992 48.026-34.048 76.595-34.048 28.672 0 56.013 13.107 76.851 34.253 20.838-21.146 48.23-34.253 76.851-34.253s56.013 13.107 76.902 34.253c20.838-21.146 48.23-34.253 76.902-34.253 28.621 0 56.013 13.107 76.851 34.253 20.838-21.146 48.23-34.253 76.902-34.253 28.416 0 55.501 12.954 76.288 33.792 19.917-19.507 47.206-32.205 76.544-32.512v-410.368h-409.242v281.6c0 14.131-11.469 25.6-25.6 25.6h-205.926c-14.131 0-25.6-11.469-25.6-25.6v-281.6h-101.171v410.317zM460.8-0.051h-154.726v256h154.726v-256zM588.8 51.302h204.698c14.131 0 25.6 11.469 25.6 25.6v204.646c0 14.131-11.469 25.6-25.6 25.6h-204.698c-14.131 0-25.6-11.469-25.6-25.6v-204.646c0-14.131 11.469-25.6 25.6-25.6zM767.898 102.502h-51.149v153.446h51.149v-153.446zM614.4 255.949h51.149v-153.446h-51.149v153.446z" />
<glyph unicode="&#xe901;" glyph-name="getting-started" data-tags="ReadMe, Icon, Getting Started, Launch" d="M973.107 875.93c0.102 12.442-4.608 24.064-13.312 32.717s-20.173 13.824-32.717 13.158c-273.818-3.072-480.41-109.261-604.57-305.203-0.922-0.051-1.792 0.205-2.714 0.051-223.078-41.574-313.293-238.541-319.488-360.806-0.973-18.074 8.192-35.021 23.808-44.237 7.782-4.608 16.435-6.912 25.088-6.912 9.011 0 17.971 2.458 25.907 7.424 51.354 31.744 100.198 41.523 137.062 43.776 2.458-4.25 5.325-8.243 8.858-11.776l19.098-19.098-79.411-79.411c-9.984-9.984-9.984-26.214 0-36.198 5.018-5.018 11.571-7.475 18.125-7.475s13.107 2.509 18.125 7.475l79.411 79.411 18.739-18.739c3.533-3.533 7.936-5.683 12.134-8.141-2.15-37.018-11.725-86.272-43.776-138.086-9.677-15.616-9.882-35.174-0.563-50.995 8.806-14.899 24.576-23.962 41.779-23.962 0.819 0 1.638 0.051 2.458 0.102 122.266 6.246 319.232 96.563 360.858 319.488 0.154 0.87-0.102 1.69-0.051 2.56 196.915 124.211 303.104 330.906 305.152 604.877zM906.342 718.541l-136.602 136.602c47.821 9.011 98.304 14.438 152.166 15.36-0.768-53.606-6.349-104.090-15.565-151.962zM288.205 555.878c-22.938-45.466-41.677-95.283-56.832-148.634-41.933 4.813-87.91 2.662-142.387-23.296 36.403 71.219 100.608 140.8 199.219 171.93zM51.405 253.235c0.819 16.128 3.738 34.15 8.448 53.094 66.458 48.23 116.685 54.477 158.362 50.79-3.738-16.282-6.963-32.973-9.984-49.92-43.11-2.816-100.147-15.155-156.826-53.965zM306.842-3.072c36.864 59.546 48.845 117.146 51.661 160.358 16.896 3.021 33.587 6.298 49.818 9.984 3.84-42.496-2.406-93.542-52.685-161.485-17.408-4.506-33.997-7.578-48.794-8.858zM434.381 36.301c26.624 55.194 28.877 101.786 24.013 144.128 53.402 15.155 103.27 33.843 148.736 56.678-31.232-99.277-101.53-163.789-172.749-200.806zM331.264 206.234l-18.79 18.79 192.205 192.205c9.984 9.984 9.984 26.214 0 36.198s-26.214 9.984-36.198 0l-192.205-192.205-19.149 19.149c-1.024 1.024-1.536 2.765-1.28 4.198 49.664 299.878 205.67 488.909 454.963 557.107l181.709-181.709c-69.427-246.886-261.786-405.76-561.254-453.734zM730.675 679.475c-50.022 50.022-131.379 50.022-181.402 0s-50.022-131.379 0-181.402c24.986-24.986 57.856-37.478 90.675-37.478s65.69 12.493 90.675 37.478c50.074 50.022 50.074 131.43 0.051 181.402zM694.477 534.323c-29.082-29.082-79.923-29.082-109.005 0-14.541 14.541-22.528 33.894-22.528 54.477s7.987 39.936 22.528 54.477 33.894 22.528 54.477 22.528 39.936-7.987 54.477-22.528 22.528-33.894 22.528-54.477-7.885-39.936-22.477-54.477z" />
<glyph unicode="&#xe902;" glyph-name="documentation" data-tags="ReadMe, Icon, Documentation" d="M486.195 972.902c-268.134 0-486.298-218.163-486.298-486.298s218.163-486.298 486.298-486.298 486.298 218.163 486.298 486.298-218.163 486.298-486.298 486.298zM486.195 51.507c-239.923 0-435.098 195.174-435.098 435.098s195.174 435.098 435.098 435.098 435.098-195.174 435.098-435.098-195.174-435.098-435.098-435.098zM870.554 487.014c0 0.102-0.051 0.205-0.051 0.358-0.717 210.944-172.237 382.31-383.181 382.925-0.256-0.051-0.512 0.102-0.768 0.102-0.205 0-0.358-0.102-0.563-0.102-211.354-0.154-383.232-171.776-383.949-382.976 0-0.102-0.051-0.205-0.051-0.358 0-0.051 0.051-0.154 0.051-0.205 0-0.256-0.051-0.512-0.051-0.819 0-211.814 172.237-384.154 384.051-384.307 0.205 0 0.358-0.102 0.563-0.102 0.256 0 0.512 0.154 0.768 0.154 211.405 0.563 383.232 172.698 383.232 384.256 0 0.256-0.051 0.512-0.051 0.819-0.051 0.102 0 0.154 0 0.256zM512.154 154.214v75.162c0 14.131-11.469 25.6-25.6 25.6s-25.6-11.469-25.6-25.6v-75.213c-163.686 12.39-294.502 143.462-306.534 307.2h76.749c14.131 0 25.6 11.469 25.6 25.6s-11.469 25.6-25.6 25.6h-76.646c12.954 162.867 143.411 292.864 306.432 305.203v-75.213c0-14.131 11.469-25.6 25.6-25.6s25.6 11.469 25.6 25.6v75.213c162.765-12.595 292.915-142.541 305.869-305.203h-76.646c-14.131 0-25.6-11.469-25.6-25.6s11.469-25.6 25.6-25.6h76.749c-12.083-163.533-142.541-294.502-305.971-307.149zM657.971 658.227c-8.090 7.936-20.531 9.677-30.515 4.147l-177.613-98.918c-16.845-9.37-30.771-23.245-40.294-40.243l-99.328-178.125c-5.53-9.933-3.84-22.426 4.198-30.515 4.966-4.966 11.52-7.526 18.125-7.526 4.198 0 8.448 1.075 12.339 3.174l179.354 98.765c17.459 9.626 31.642 23.962 41.062 41.267l97.075 177.613c5.478 9.933 3.635 22.323-4.403 30.362zM520.346 474.675c-4.813-8.858-11.981-16.077-20.838-20.941l-101.171-55.706 55.91 100.198c4.813 8.653 11.878 15.718 20.429 20.48l100.25 55.859-54.579-99.891zM358.144 640.051c0-14.138-11.462-25.6-25.6-25.6s-25.6 11.462-25.6 25.6c0 14.138 11.462 25.6 25.6 25.6s25.6-11.462 25.6-25.6zM665.498 332.595c0-14.138-11.462-25.6-25.6-25.6s-25.6 11.462-25.6 25.6c0 14.138 11.462 25.6 25.6 25.6s25.6-11.462 25.6-25.6z" />
<glyph unicode="&#xe903;" glyph-name="examples" data-tags="ReadMe, Icon, Examples" d="M979.302 870.4h-934.605c-24.627 0-44.698-20.070-44.698-44.698v-576.205c0-24.627 20.070-44.698 44.698-44.698h416.102v-102.4h-179.61c-14.131 0-25.6-11.469-25.6-25.6s11.469-25.6 25.6-25.6h410.163c14.131 0 25.6 11.469 25.6 25.6s-11.469 25.6-25.6 25.6h-179.354v102.4h467.302c24.627 0 44.698 20.070 44.698 44.698v576.205c0 24.627-20.070 44.698-44.698 44.698zM972.8 256h-921.6v563.2h921.6v-563.2zM423.629 361.114c3.686-1.843 7.578-2.714 11.469-2.714 9.37 0 18.381 5.171 22.886 14.131l153.907 307.046c6.298 12.595 1.178 28.006-11.469 34.355-12.442 6.298-28.006 1.28-34.355-11.469l-153.907-307.046c-6.246-12.544-1.178-27.955 11.469-34.304zM318.771 413.696c4.352-2.918 9.318-4.301 14.182-4.301 8.243 0 16.333 3.994 21.299 11.418 7.834 11.725 4.659 27.648-7.117 35.482l-121.805 81.306 121.805 81.306c11.776 7.834 14.95 23.757 7.117 35.482-7.885 11.878-23.859 14.95-35.482 7.117l-153.702-102.605c-7.168-4.762-11.418-12.749-11.418-21.299s4.25-16.538 11.418-21.299l153.702-102.605zM669.952 420.813c4.966-7.424 13.056-11.418 21.299-11.418 4.915 0 9.83 1.382 14.182 4.301l153.702 102.605c7.168 4.762 11.418 12.749 11.418 21.299s-4.25 16.538-11.418 21.299l-153.702 102.605c-11.725 7.782-27.648 4.71-35.482-7.117-7.834-11.725-4.659-27.648 7.117-35.482l121.805-81.306-121.805-81.306c-11.776-7.834-14.95-23.757-7.117-35.482z" />
<glyph unicode="&#xe904;" glyph-name="reference" data-tags="ReadMe, Icon, Reference" d="M256.154 560.691v387.123c0 14.131-11.469 25.6-25.6 25.6s-25.6-11.469-25.6-25.6v-387.072c-28.979-5.274-51.456-29.542-51.456-60.109v-182.682c0-30.515 22.477-54.733 51.456-60.006v-284.467c0-14.131 11.469-25.6 25.6-25.6s25.6 11.469 25.6 25.6v284.518c28.877 5.376 51.2 29.594 51.2 59.955v182.682c0.051 30.464-22.323 54.682-51.2 60.058zM256.205 317.952c0-6.042-4.966-11.008-11.008-11.008h-29.491c-6.093 0-11.008 4.966-11.008 11.008v182.682c0 6.093 4.966 11.059 11.008 11.059h29.44c6.093 0 11.008-4.966 11.008-11.059v-182.682zM563.302 765.491v182.323c0 14.131-11.469 25.6-25.6 25.6s-25.6-11.469-25.6-25.6v-182.272c-28.979-5.274-51.456-29.542-51.456-60.109v-182.682c0-30.515 22.477-54.733 51.456-60.006v-489.267c0-14.131 11.469-25.6 25.6-25.6s25.6 11.469 25.6 25.6v489.318c28.877 5.376 51.2 29.594 51.2 59.955v182.682c0 30.464-22.323 54.63-51.2 60.058zM563.302 522.752c0-6.042-4.966-11.008-11.008-11.008h-29.44c-6.093 0-11.008 4.966-11.008 11.008v182.682c0 6.093 4.966 11.059 11.008 11.059h29.44c6.093 0 11.008-4.966 11.008-11.059v-182.682zM870.451 407.347v540.723c0 14.131-11.469 25.6-25.6 25.6s-25.6-11.469-25.6-25.6v-540.672c-28.979-5.274-51.456-29.594-51.456-60.058v-182.682c0-30.464 22.477-54.733 51.456-60.006v-130.867c0-14.131 11.469-25.6 25.6-25.6s25.6 11.469 25.6 25.6v130.918c28.877 5.376 51.251 29.594 51.251 59.955v182.682c0 30.362-22.374 54.579-51.251 60.006zM870.502 164.608c0-6.042-4.966-11.008-11.059-11.008h-29.44c-6.042 0-11.008 4.966-11.008 11.008v182.682c0 6.093 4.966 11.059 11.008 11.059h29.44c6.093 0 11.059-4.966 11.059-11.059v-182.682z" />
<glyph unicode="&#xe905;" glyph-name="custom-pages" data-tags="ReadMe, Icon, Custom Pages" d="M826.163 409.498h-6.195v407.142c0 29.594-24.064 53.658-53.658 53.658h-152.013c0 0.41 0.256 0.768 0.256 1.178v45.722c0 30.771-25.037 55.808-55.808 55.808h-144.384c-30.771 0-55.808-25.037-55.808-55.808v-45.722c0-0.41 0.205-0.768 0.256-1.178h-151.654c-29.594 0-53.658-24.064-53.658-53.658v-407.142h-6.502c-24.474 0-44.339-19.917-44.339-44.339v-65.69c0-11.878 4.659-23.091 13.056-31.437 8.346-8.346 19.456-12.902 31.13-12.902 0.102 0 0.154 0 0.256 0l158.362 0.154-49.203-277.094c-2.509-13.926 6.81-27.238 20.685-29.696 1.536-0.256 3.072-0.41 4.557-0.41 12.134 0 22.938 8.704 25.139 21.094l50.842 286.157 103.424 0.102v-178.944c0-14.131 11.469-25.6 25.6-25.6s25.6 11.469 25.6 25.6v178.995l101.837 0.102 50.893-286.413c2.202-12.39 13.005-21.094 25.139-21.094 1.485 0 3.021 0.154 4.557 0.41 13.875 2.458 23.194 15.77 20.685 29.696l-49.306 277.453 160.307 0.154c24.422 0 44.288 19.917 44.288 44.339v64.973c0.051 24.474-19.866 44.39-44.339 44.39zM409.754 871.475v45.722c0 2.56 2.048 4.608 4.608 4.608h144.384c2.56 0 4.608-2.048 4.608-4.608v-45.722c0-0.41 0.205-0.768 0.256-1.178h-154.112c0.051 0.41 0.256 0.768 0.256 1.178zM207.155 819.098l561.613-2.458v-407.142h-564.070l2.458 409.6zM819.354 307.046l-665.498-0.768v52.019h665.498v-51.251z" />
<glyph unicode="&#xe906;" glyph-name="announcements" data-tags="ReadMe, Icon, Announcements" d="M690.176 614.144l-24.269-0.256v223.744c0 33.075-18.688 62.259-48.845 75.981-30.157 13.824-64.41 8.909-91.802-15.309l-115.302-130.304h-366.95c-23.706 0-43.008-19.302-43.008-43.008v-374.784c0-23.706 19.302-43.008 43.008-43.008h9.523l53.146-306.534c5.325-30.157 31.334-52.019 61.952-52.019h77.21c18.586 0 36.096 8.141 48.077 22.374 11.981 14.131 17.101 32.819 14.029 50.842l-30.669 183.859h26.112c30.771 0 55.757 24.986 55.757 55.757v45.722h49.92l119.45-133.478c15.667-13.568 34.918-20.582 54.477-20.582 11.776 0 23.654 2.56 34.97 7.68 30.157 13.773 48.845 42.854 48.845 75.93v222.259l25.549 0.307c42.035 0.512 76.493 35.174 76.8 77.158 0.154 20.89-7.936 40.55-22.733 55.245-14.694 14.694-34.611 22.016-55.245 22.426zM358.195 716.8h51.405v-358.4h-51.405v358.4zM51.2 716.8h255.795v-358.4h-255.795v358.4zM306.995 261.427c0-2.509-2.048-4.557-4.557-4.557h-26.112c-14.797 0-28.774-6.502-38.298-17.818s-13.568-26.112-11.162-40.448l29.542-185.088c0.819-4.71-1.28-7.936-2.611-9.574-1.28-1.536-4.25-4.147-9.011-4.147h-77.158c-5.683 0-10.547 4.096-11.571 9.626l-51.61 297.779h202.547v-45.773zM614.707 236.749c0-13.005-7.066-24.013-18.893-29.338-11.725-5.427-24.73-3.584-32.307 2.714l-102.707 114.944v423.219l100.403 113.715c9.779 8.55 22.63 10.445 34.611 5.018 11.827-5.376 18.893-16.384 18.893-29.389v-600.883zM690.842 510.515l-24.934-0.307v52.429l24.883 0.307c6.656 0.256 13.619-2.611 18.586-7.526s7.68-11.571 7.629-18.534c-0.051-14.387-11.827-26.163-26.163-26.368zM909.875 764.416c-11.52 7.936-27.494 5.171-35.584-6.605-7.987-11.674-5.069-27.546 6.605-35.584 57.549-39.629 91.904-107.776 91.904-182.374 0-75.674-35.021-146.842-91.392-185.805-11.674-7.987-14.541-23.962-6.502-35.584 4.966-7.219 12.954-11.059 21.043-11.059 5.069 0 10.086 1.434 14.541 4.557 69.99 48.333 113.51 135.68 113.51 227.891 0 91.443-42.65 175.411-114.125 224.563zM861.44 659.61c-10.701 9.165-26.829 7.885-36.096-2.918-9.165-10.752-7.834-26.88 2.918-36.096 28.314-24.166 42.138-50.79 42.138-81.459 0-30.925-14.694-60.211-42.547-84.582-10.65-9.318-11.725-25.498-2.406-36.096 5.069-5.786 12.134-8.755 19.251-8.755 5.99 0 11.981 2.099 16.845 6.349 39.322 34.406 60.058 76.954 60.058 123.085 0 45.926-20.275 86.426-60.16 120.474z" />
<glyph unicode="&#xe907;" glyph-name="support" data-tags="ReadMe, Icon, Support" d="M923.341 274.176c32.205 66.304 48.947 137.37 48.947 211.763 0 268.032-218.061 486.093-486.093 486.093s-486.093-218.010-486.093-486.093 218.061-486.144 486.093-486.144c75.11 0 146.944 16.896 213.709 49.715l215.245-48.691c3.174-0.666 6.4-0.973 9.626-0.973 12.442 0 24.525 4.915 33.536 13.875 11.315 11.315 16.179 27.392 12.954 43.571l-47.923 216.883zM702.618 101.325c-7.219 1.638-14.285 0-19.917-3.789-0.358-0.154-0.819-0.154-1.178-0.307-60.877-30.72-126.669-46.234-195.328-46.234-239.821 0-434.893 195.123-434.893 434.944s195.123 434.893 434.893 434.893 434.893-195.123 434.893-434.893c0-69.581-15.974-136.038-47.36-197.53-0.512-1.075-0.512-2.202-0.922-3.277-0.614-1.69-1.229-3.328-1.434-5.12-0.256-1.843-0.051-3.584 0.102-5.427 0.102-1.126-0.205-2.202 0.051-3.328l48.384-218.982-217.293 49.050zM281.19 563.2c-42.342 0-76.8-34.458-76.8-76.8s34.458-76.8 76.8-76.8c42.342 0 76.8 34.458 76.8 76.8s-34.458 76.8-76.8 76.8zM281.19 460.8c-14.131 0-25.6 11.469-25.6 25.6s11.469 25.6 25.6 25.6c14.131 0 25.6-11.469 25.6-25.6s-11.469-25.6-25.6-25.6zM486.195 563.2c-42.342 0-76.8-34.458-76.8-76.8s34.458-76.8 76.8-76.8 76.8 34.458 76.8 76.8-34.458 76.8-76.8 76.8zM486.195 460.8c-14.131 0-25.6 11.469-25.6 25.6s11.469 25.6 25.6 25.6c14.131 0 25.6-11.469 25.6-25.6s-11.469-25.6-25.6-25.6zM691.2 563.2c-42.342 0-76.8-34.458-76.8-76.8s34.458-76.8 76.8-76.8 76.8 34.458 76.8 76.8-34.458 76.8-76.8 76.8zM691.2 460.8c-14.131 0-25.6 11.469-25.6 25.6s11.469 25.6 25.6 25.6 25.6-11.469 25.6-25.6-11.469-25.6-25.6-25.6z" />
<glyph unicode="&#xe908;" glyph-name="owl" data-tags="ReadMe, Icon, Owl, Support" d="M613.939 717.005c-54.938 0-99.584-43.366-102.4-97.587-2.816 54.221-47.462 97.587-102.4 97.587-56.781 0-102.963-46.131-102.963-102.912s46.182-102.963 102.963-102.963c54.938 0 99.533 43.418 102.4 97.638 2.816-54.221 47.462-97.638 102.4-97.638 56.73 0 102.963 46.182 102.963 102.963s-46.182 102.912-102.963 102.912zM409.139 562.33c-28.518 0-51.763 23.194-51.763 51.763 0 28.518 23.245 51.712 51.763 51.712s51.712-23.194 51.712-51.712c0-28.518-23.194-51.763-51.712-51.763zM613.939 562.33c-28.57 0-51.763 23.194-51.763 51.763 0 28.518 23.194 51.712 51.763 51.712s51.763-23.194 51.763-51.712c0-28.518-23.194-51.763-51.763-51.763zM536.576 512.154h-50.125c-8.806 0-17.050-4.557-21.709-11.981-4.659-7.526-5.12-16.896-1.28-24.832l25.088-51.558c4.301-8.806 13.21-14.387 23.040-14.387s18.739 5.581 23.040 14.387l25.037 51.558c3.891 7.936 3.328 17.306-1.331 24.781-4.71 7.475-12.902 12.032-21.76 12.032zM921.037 591.309v35.123c0.154 1.126 0.666 2.099 0.666 3.226 0 2.509-0.563 4.915-0.666 7.424v144.384c0.102 0.922 0.563 1.741 0.563 2.714v151.347c0 12.851-6.502 24.525-17.408 31.283-5.478 3.43-11.674 5.274-18.432 5.222-6.758 0.051-14.080-1.741-22.067-5.888l-104.038-78.029c-50.739 38.656-109.517 65.69-172.134 77.363-24.678 4.659-50.125 7.014-75.52 7.014-0.051 0-0.102-0.051-0.205-0.051s-0.102 0.051-0.154 0.051c-25.395 0-50.842-2.355-75.52-7.014-62.771-11.622-121.702-38.758-172.544-77.568l-108.288 80.794c-11.52 5.632-24.934 4.966-35.84-1.843-10.906-6.758-17.408-18.534-17.408-31.334v-344.269c-58.522-254.31 37.939-475.955 161.434-535.91 4.864-2.355 9.984-3.533 15.002-3.533 5.069 0 10.086 1.178 14.694 3.584 17.51 9.216 32.973 20.838 46.643 33.69 22.528-10.394 45.773-19.149 69.837-25.293v-63.949h-25.856c-14.131 0-25.6-11.469-25.6-25.6s11.469-25.6 25.6-25.6h51.507c14.131 0 25.6 11.469 25.6 25.6v79.718c16.794-2.099 33.741-3.226 50.739-3.226 17.152 0 34.253 1.485 51.302 3.584v-80.026c0-14.131 11.469-25.6 25.6-25.6h51.558c14.131 0 25.6 11.469 25.6 25.6s-11.469 25.6-25.6 25.6h-25.958v64.922c23.706 6.144 46.746 14.234 68.966 24.474 13.773-13.005 29.338-24.73 47.053-34.048 4.506-2.304 9.421-3.43 14.387-3.43 5.069 0 10.189 1.178 15.104 3.533 123.443 60.006 219.904 281.651 161.382 535.962zM512 358.349c-0.154 0-0.307-0.102-0.512-0.102-0.154 0-0.307 0.102-0.512 0.102-183.501 0-343.501 121.958-357.734 272.23 0.307 93.952 65.536 174.234 152.013 186.829 75.878 11.213 148.122-23.45 183.962-87.962 4.506-8.141 13.056-13.21 22.374-13.21 0 0 0 0 0 0 9.318 0 17.869 5.069 22.374 13.21 35.738 64.666 108.39 99.174 184.32 87.962 84.378-12.237 148.070-89.088 151.501-180.173v-6.093c-13.824-150.528-174.029-272.794-357.786-272.794zM869.837 784.179v-2.714c-21.35 27.699-48.435 49.92-79.462 65.382l79.462 59.955v-122.624zM445.491 915.2c21.658 4.045 43.93 6.093 66.15 6.093 0.051 0 0.102 0.051 0.205 0.051s0.102-0.051 0.154-0.051c22.272 0 44.493-2.048 66.15-6.093 41.216-7.68 80.486-23.194 116.48-44.544-72.192 1.382-139.059-29.235-183.040-83.251-43.93 54.016-110.643 84.531-182.63 83.251 35.994 21.35 75.264 36.864 116.531 44.544zM153.242 906.803l79.872-60.006c-31.232-15.616-58.47-38.144-79.872-66.15v126.157zM745.165 105.574c-13.21 8.038-24.525 17.766-34.355 28.262-0.922 1.434-1.997 2.714-3.174 3.891-28.006 31.744-41.728 69.683-41.728 92.979 0 14.131-11.469 25.6-25.6 25.6s-25.6-11.469-25.6-25.6c0-29.798 11.981-66.611 34.304-100.557-22.989-9.574-46.592-17.562-71.168-22.17-68.352-12.595-139.725-3.789-203.52 22.579 22.17 33.843 34.048 70.502 34.048 100.198 0 14.131-11.469 25.6-25.6 25.6s-25.6-11.469-25.6-25.6c0-32.154-25.293-92.262-79.258-125.133-89.856 50.637-157.645 211.046-138.803 396.544 65.536-115.251 208.589-195.021 371.917-195.021 0.154 0 0.307 0.102 0.512 0.102 0.154 0 0.307-0.102 0.512-0.102 160.102 0 304.486 83.661 371.098 201.626 21.094-188.211-47.053-351.846-137.984-403.2z" />
<glyph unicode="&#xe909;" glyph-name="speed" data-tags="ReadMe, Icon, Speed" d="M655.77 621.414c9.984 9.984 9.984 26.214 0 36.198s-26.214 9.984-36.198 0l-98.15-98.15c-1.024-1.024-1.485-2.355-2.304-3.482-9.882 4.608-20.838 7.373-32.461 7.373-42.547 0-77.21-34.662-77.21-77.261s34.662-77.261 77.21-77.261c42.598 0 77.261 34.662 77.261 77.261 0 12.8-3.43 24.73-8.96 35.379 0.87 0.666 1.894 0.973 2.662 1.792l98.15 98.15zM486.656 460.032c-14.336 0-26.010 11.725-26.010 26.061s11.674 26.061 26.010 26.061 26.061-11.725 26.061-26.061-11.725-26.061-26.061-26.061zM665.139 211.866v37.171c0 32.154-26.163 58.317-58.317 58.317h-240.845c-32.154 0-58.317-26.163-58.317-58.317v-37.171c0-32.154 26.163-58.317 58.317-58.317h240.845c32.154 0 58.317 26.163 58.317 58.317zM613.939 211.866c0-3.891-3.174-7.117-7.117-7.117h-240.845c-3.891 0-7.117 3.174-7.117 7.117v37.171c0 3.891 3.174 7.117 7.117 7.117h240.845c3.891 0 7.117-3.174 7.117-7.117v-37.171zM488.038 973.619c-105.626 0-203.213-34.099-283.187-91.392-1.126-0.614-2.355-0.819-3.379-1.587-1.229-0.87-1.946-2.15-2.97-3.174-38.195-28.314-72.038-62.003-100.557-100.045-1.382-1.229-2.97-2.202-4.096-3.789-1.024-1.382-1.331-2.97-2.048-4.454-27.699-38.656-49.92-81.408-65.485-127.283-0.563-1.126-1.434-2.048-1.843-3.277-0.256-0.87-0.102-1.741-0.307-2.56-14.95-46.234-23.245-95.334-23.654-146.33 0-0.358-0.205-0.614-0.205-0.973 0-0.205 0.102-0.358 0.102-0.563 0-0.768-0.102-1.536-0.102-2.304 0-196.454 116.89-372.838 297.882-449.382 12.954-5.325 28.006 0.563 33.536 13.67 5.478 13.005-0.614 28.006-13.67 33.536-111.872 47.309-195.379 137.779-236.954 246.886l71.526 23.245c13.466 4.352 20.787 18.79 16.435 32.256s-18.739 20.838-32.256 16.435l-71.168-23.142c-6.81 27.187-11.008 55.194-12.493 83.814h74.496c14.131 0 25.6 11.469 25.6 25.6s-11.469 25.6-25.6 25.6h-74.752c1.946 28.672 6.554 56.627 13.773 83.61l71.066-23.091c2.611-0.87 5.325-1.229 7.885-1.229 10.803 0 20.838 6.861 24.371 17.715 4.352 13.466-3.021 27.904-16.435 32.256l-70.963 22.989c10.547 26.47 23.552 51.661 38.861 75.315l60.365-43.878c4.557-3.277 9.779-4.915 15.053-4.915 7.885 0 15.718 3.635 20.685 10.547 8.294 11.469 5.786 27.443-5.632 35.738l-60.518 43.981c18.022 21.862 38.195 41.882 60.109 59.853l44.134-60.774c5.018-6.912 12.8-10.547 20.685-10.547 5.274 0 10.496 1.587 15.053 4.915 11.469 8.294 13.926 24.32 5.632 35.738l-43.93 60.518c23.706 15.258 48.998 28.211 75.571 38.707l23.296-71.68c3.482-10.854 13.568-17.715 24.371-17.715 2.611 0 5.325 0.41 7.885 1.229 13.466 4.352 20.787 18.79 16.435 32.256l-23.296 71.68c27.085 7.117 55.091 11.674 83.968 13.414v-75.93c0-14.131 11.469-25.6 25.6-25.6s25.6 11.469 25.6 25.6v76.032c28.928-1.638 57.088-5.99 84.275-13.005l-23.757-73.062c-4.352-13.466 3.021-27.904 16.435-32.256 2.611-0.87 5.325-1.229 7.885-1.229 10.803 0 20.838 6.861 24.371 17.715l23.808 73.267c26.829-10.445 52.378-23.398 76.339-38.707l-45.67-62.822c-8.294-11.469-5.786-27.443 5.632-35.738 4.557-3.277 9.779-4.915 15.053-4.915 7.885 0 15.718 3.635 20.685 10.547l45.926 63.181c22.272-18.176 42.752-38.4 61.030-60.518l-63.846-46.387c-11.469-8.294-13.926-24.32-5.632-35.738 5.018-6.912 12.8-10.547 20.685-10.547 5.274 0 10.496 1.587 15.053 4.915l63.744 46.336c15.565-24.064 28.723-49.664 39.373-76.646l-75.674-24.576c-13.466-4.352-20.787-18.79-16.435-32.256 3.482-10.854 13.568-17.715 24.371-17.715 2.611 0 5.325 0.41 7.885 1.229l75.674 24.576c7.322-27.546 11.878-56.013 13.568-85.35h-80.026c-14.131 0-25.6-11.469-25.6-25.6s11.469-25.6 25.6-25.6h79.411c-1.69-29.184-6.042-57.651-13.261-85.299l-76.186 24.73c-13.466 4.352-27.904-3.072-32.256-16.435-4.352-13.466 3.021-27.904 16.435-32.256l75.878-24.627c-42.138-107.213-124.877-195.994-235.366-242.739-13.056-5.53-19.149-20.531-13.67-33.536 4.147-9.779 13.67-15.667 23.603-15.667 3.328 0 6.707 0.666 9.933 1.997 180.992 76.544 297.882 252.928 297.882 449.382 0.154 269.005-218.675 487.834-487.629 487.834z" />
<glyph unicode="&#xe90a;" glyph-name="subnav" data-tags="ReadMe, Icon, Subnav" d="M76.8 921.293c-42.291 0-76.749-34.458-76.749-76.749s34.458-76.749 76.749-76.749 76.749 34.458 76.749 76.749-34.458 76.749-76.749 76.749zM76.8 818.688c-14.234 0-25.856 11.622-25.856 25.856s11.622 25.856 25.856 25.856 25.856-11.622 25.856-25.856-11.622-25.856-25.856-25.856zM76.8 666.061c-42.291 0-76.749-34.458-76.749-76.749 0-42.342 34.458-76.8 76.749-76.8s76.749 34.458 76.749 76.8c0 42.291-34.458 76.749-76.749 76.749zM76.8 563.405c-14.234 0-25.856 11.622-25.856 25.907 0 14.234 11.622 25.856 25.856 25.856s25.856-11.622 25.856-25.856c0-14.336-11.622-25.907-25.856-25.907zM76.8 153.344c-42.291 0-76.749-34.458-76.749-76.749s34.458-76.749 76.749-76.749 76.749 34.458 76.749 76.749-34.458 76.749-76.749 76.749zM76.8 50.739c-14.234 0-25.856 11.622-25.856 25.856s11.622 25.856 25.856 25.856 25.856-11.622 25.856-25.856-11.622-25.856-25.856-25.856zM281.6 256.512c42.291 0 76.749 34.458 76.749 76.8 0 42.291-34.458 76.749-76.749 76.749s-76.749-34.458-76.749-76.749c0-42.342 34.458-76.8 76.749-76.8zM281.6 359.168c14.234 0 25.856-11.622 25.856-25.856 0-14.285-11.622-25.907-25.856-25.907s-25.856 11.571-25.856 25.907c0 14.234 11.622 25.856 25.856 25.856zM967.731 665.344h-706.406c-30.925 0-56.166-25.19-56.166-56.013l-0.205-40.55c0-30.925 25.19-56.166 56.166-56.166h706.458c30.925 0 56.115 25.19 56.115 56.013l0.256 40.55c-0.051 30.976-25.242 56.166-56.218 56.166zM972.442 568.781c0-2.765-2.202-4.966-4.915-4.966h-706.406c-2.765 0-4.966 2.202-4.966 4.813l0.205 40.55c0 2.765 2.202 4.966 4.966 4.966h706.458c2.765 0 4.966-2.202 4.966-4.813l-0.307-40.55zM967.731 152.934h-706.406c-30.925 0-56.166-25.19-56.166-56.013l-0.205-40.55c0-30.925 25.19-56.166 56.166-56.166h706.458c30.925 0 56.115 25.19 56.115 56.013l0.256 40.55c-0.051 30.976-25.242 56.166-56.218 56.166zM972.442 56.422c0-2.765-2.202-4.966-4.915-4.966h-706.406c-2.765 0-4.966 2.202-4.966 4.813l0.205 40.55c0 2.765 2.202 4.966 4.966 4.966h706.458c2.765 0 4.966-2.202 4.966-4.813l-0.307-40.55zM967.731 408.934h-501.606c-30.925 0-56.166-25.19-56.166-56.013l-0.205-40.55c0-30.925 25.19-56.166 56.166-56.166h501.658c30.925 0 56.115 25.19 56.115 56.013l0.256 40.55c-0.051 30.976-25.242 56.166-56.218 56.166zM972.442 312.422c0-2.765-2.202-4.966-4.915-4.966h-501.606c-2.765 0-4.966 2.202-4.966 4.813l0.205 40.55c0 2.765 2.202 4.966 4.966 4.966h501.658c2.765 0 4.966-2.202 4.966-4.813l-0.307-40.55zM261.12 768.666h706.458c30.925 0 56.115 25.19 56.115 56.013l0.256 40.55c0 30.925-25.19 56.166-56.166 56.166h-706.458c-30.925 0-56.166-25.19-56.166-56.013l-0.205-40.602c0-30.925 25.19-56.115 56.166-56.115zM256.358 865.178c0 2.765 2.202 4.966 4.966 4.966h706.458c2.765 0 4.966-2.202 4.966-4.813l-0.256-40.55c0-2.765-2.202-4.966-4.915-4.966h-706.458c-2.765 0-4.966 2.202-4.966 4.813l0.205 40.55z" />
<glyph unicode="&#xe90b;" glyph-name="reference-guides" data-tags="ReadMe, Icon, Reference Guides" d="M946.381 921.242h-869.683c-42.24 0-76.595-34.355-76.595-76.595v-767.539c0-42.24 34.355-76.595 76.595-76.595h149.965c1.178-0.154 2.253-0.717 3.482-0.717s2.304 0.512 3.482 0.717h352.051c1.178-0.154 2.253-0.717 3.482-0.717s2.304 0.512 3.482 0.717h353.792c42.24 0 76.646 34.355 76.646 76.595v767.539c-0.051 42.24-34.406 76.595-76.698 76.595zM76.698 870.042h869.683c14.029 0 25.446-11.418 25.446-25.395v-128.358h-920.525v128.358c0 14.029 11.418 25.395 25.395 25.395zM563.558 665.088v-613.376h-307.814v613.376h307.814zM51.302 77.107v587.981h153.242v-613.376h-127.846c-13.978 0-25.395 11.366-25.395 25.395zM946.381 51.712h-331.674v613.376h357.12v-587.981c0-14.029-11.366-25.395-25.446-25.395zM153.344 793.651c0-14.138-11.462-25.6-25.6-25.6s-25.6 11.462-25.6 25.6c0 14.138 11.462 25.6 25.6 25.6s25.6-11.462 25.6-25.6zM255.744 793.651c0-14.138-11.462-25.6-25.6-25.6s-25.6 11.462-25.6 25.6c0 14.138 11.462 25.6 25.6 25.6s25.6-11.462 25.6-25.6zM358.144 793.651c0-14.138-11.462-25.6-25.6-25.6s-25.6 11.462-25.6 25.6c0 14.138 11.462 25.6 25.6 25.6s25.6-11.462 25.6-25.6z" />
<glyph unicode="&#xe90c;" glyph-name="search" data-tags="ReadMe, Icon, Search" d="M410.419 870.656c-169.523 0-307.456-137.933-307.456-307.456s137.933-307.456 307.456-307.456c169.523 0 307.405 137.882 307.405 307.456s-137.933 307.456-307.405 307.456zM410.419 306.944c-141.312 0-256.256 114.944-256.256 256.256s114.944 256.256 256.256 256.256c141.261 0 256.205-114.944 256.205-256.256s-114.944-256.256-256.205-256.256zM1001.472 79.923l-252.16 252.109c46.029 67.891 71.373 146.278 71.373 229.12 0 226.253-184.064 410.317-410.317 410.317-226.202 0-410.266-184.064-410.266-410.317s184.064-410.317 410.266-410.317c83.661 0 162.662 25.754 230.912 72.55l251.802-251.802c14.387-14.438 33.638-22.426 54.118-22.426 0.051 0 0.051 0 0.051 0 20.429 0 39.68 7.936 54.221 22.426 29.85 29.85 29.85 78.438 0 108.339zM965.274 7.782c-4.813-4.813-11.213-7.475-18.022-7.475s-13.158 2.662-17.971 7.475l-266.445 266.445c-0.87 0.87-1.946 1.229-2.918 1.946-1.331 1.024-2.611 1.997-4.096 2.714-1.638 0.819-3.277 1.229-5.018 1.69-1.434 0.358-2.765 0.717-4.198 0.819-1.894 0.154-3.686-0.051-5.581-0.358-1.382-0.205-2.662-0.358-3.994-0.768-1.843-0.614-3.533-1.536-5.274-2.56-0.87-0.512-1.792-0.666-2.611-1.28-63.181-48.64-138.854-74.342-218.829-74.342-197.99 0-359.066 161.075-359.066 359.117s161.075 359.117 359.066 359.117 359.117-161.075 359.117-359.117c0-79.206-25.293-154.317-73.114-217.19-0.922-1.178-1.229-2.611-1.894-3.891-0.563-1.126-1.229-2.15-1.638-3.328-0.666-1.997-0.973-3.942-1.178-5.99-0.102-1.229-0.256-2.406-0.205-3.635 0.102-1.946 0.563-3.738 1.075-5.632 0.358-1.331 0.717-2.662 1.331-3.942 0.768-1.587 1.843-2.97 2.918-4.403 0.717-0.922 1.024-1.997 1.894-2.816l266.547-266.496c9.984-10.035 9.984-26.163 0.102-36.096zM409.139 767.949c-112.896 0-204.749-91.853-204.749-204.749 0-14.131 11.469-25.6 25.6-25.6s25.6 11.469 25.6 25.6c0 84.634 68.864 153.549 153.549 153.549 14.131 0 25.6 11.469 25.6 25.6s-11.469 25.6-25.6 25.6z" />
<glyph unicode="&#xe90d;" glyph-name="mobile" data-tags="ReadMe, Icon, Mobile" d="M742.451 971.469h-410.47c-42.24 0-76.595-34.406-76.595-76.646v-869.069c0-42.24 34.355-76.595 76.595-76.595h410.47c42.24 0 76.646 34.355 76.646 76.595v869.018c0 42.291-34.406 76.698-76.646 76.698zM306.586 819.149h461.312v-614.656h-461.312v614.656zM331.981 920.269h410.47c14.029 0 25.446-11.418 25.446-25.446v-24.474h-461.312v24.422c0 14.080 11.418 25.498 25.395 25.498zM742.451 0.358h-410.47c-13.978 0-25.395 11.418-25.395 25.395v127.539h461.312v-127.539c0-14.029-11.418-25.395-25.446-25.395zM563.917 74.598c0-14.138-11.462-25.6-25.6-25.6s-25.6 11.462-25.6 25.6c0 14.138 11.462 25.6 25.6 25.6s25.6-11.462 25.6-25.6zM708.966 759.194c-9.984 9.984-26.214 9.984-36.198 0l-309.965-309.965c-9.984-9.984-9.984-26.214 0-36.198 5.018-5.018 11.571-7.475 18.125-7.475s13.107 2.509 18.125 7.475l309.965 309.965c9.933 9.984 9.933 26.214-0.051 36.198zM672.768 605.286l-153.907-153.907c-9.984-9.984-9.984-26.214 0-36.198 5.018-5.018 11.571-7.475 18.125-7.475s13.107 2.509 18.125 7.475l153.907 153.907c9.984 9.984 9.984 26.214 0 36.198s-26.266 10.035-36.25 0zM383.949 564.275c6.554 0 13.107 2.509 18.125 7.475l152.986 152.986c9.984 9.984 9.984 26.214 0 36.198s-26.214 9.984-36.198 0l-152.986-152.934c-9.984-9.984-9.984-26.214 0-36.198 4.966-5.018 11.52-7.526 18.074-7.526z" />
<glyph unicode="&#xe90e;" glyph-name="corner-down-left" data-tags="corner-down-left" d="M414.17 542.17c16.661-16.663 16.661-43.678 0-60.34l-183.164-183.164 183.164-183.164c16.661-16.661 16.661-43.678 0-60.339-16.663-16.661-43.677-16.661-60.34 0l-213.333 213.333c-16.662 16.661-16.662 43.678 0 60.339l213.333 213.334c16.663 16.662 43.677 16.662 60.34 0zM853.333 810.667c23.565 0 42.667-19.103 42.667-42.667v-298.667c0-56.58-22.477-110.844-62.485-150.848-40.004-40.009-94.268-62.485-150.848-62.485h-512c-23.564 0-42.667 19.102-42.667 42.667s19.103 42.667 42.667 42.667h512c33.946 0 66.505 13.487 90.509 37.491s37.491 56.563 37.491 90.509v298.667c0 23.564 19.102 42.667 42.667 42.667z" />
<glyph unicode="&#xe90f;" glyph-name="readme-brandmark" data-tags="ReadMe_Logo-brandmark" horiz-adv-x="1407" d="M1289.013 960h-340.631c-0.021 0-0.046 0-0.070 0-119.019 0-218.687-82.85-244.479-194.023-26.453 111.173-126.121 194.023-245.14 194.023-0.025 0-0.049 0-0.074 0h-340.393c-64.648 0-117.055-52.407-117.055-117.055v-599.323c0-64.648 52.407-117.055 117.055-117.055h218.659c249.094 0 323.541-59.932 359.126-183.309 0.753-2.851 3.309-4.92 6.348-4.92 0.073 0 0.146 0.001 0.218 0.004h1.394c0.062-0.002 0.134-0.003 0.207-0.003 3.039 0 5.595 2.068 6.338 4.874 35.829 123.422 110.276 183.354 359.136 183.354h218.659c64.648 0 117.055 52.407 117.055 117.055v599.323c0 0.001 0 0.001 0 0.002 0 64.401-52.008 116.655-116.315 117.053zM591.129 313.152c0-4.655-3.773-8.428-8.428-8.428 0 0 0 0 0 0h-390.965c0 0 0 0 0 0-4.655 0-8.428 3.773-8.428 8.428 0 0 0 0 0 0v55.718c0 4.655 3.773 8.428 8.428 8.428 0 0 0 0 0 0h390.965c0 0 0 0 0 0 4.655 0 8.428-3.773 8.428-8.428 0 0 0 0 0 0v-55.718zM591.129 461.578c0-4.655-3.773-8.428-8.428-8.428 0 0 0 0 0 0h-390.965c0 0 0 0 0 0-4.655 0-8.428 3.773-8.428 8.428 0 0 0 0 0 0v55.718c0 4.655 3.773 8.428 8.428 8.428 0 0 0 0 0 0h390.965c0 0 0 0 0 0 4.655 0 8.428-3.773 8.428-8.428 0 0 0 0 0 0v-55.718zM591.129 610.005c0-4.655-3.773-8.428-8.428-8.428 0 0 0 0 0 0h-390.965c0 0 0 0 0 0-4.655 0-8.428 3.773-8.428 8.428 0 0 0 0 0 0v55.718c0 4.655 3.773 8.428 8.428 8.428 0 0 0 0 0 0h390.965c0 0 0 0 0 0 4.655 0 8.428-3.773 8.428-8.428 0 0 0 0 0 0v-55.718zM1223.228 313.386c0-4.655-3.773-8.428-8.428-8.428 0 0 0 0 0 0h-390.965c0 0 0 0 0 0-4.655 0-8.428 3.773-8.428 8.428 0 0 0 0 0 0v55.718c0 4.655 3.773 8.428 8.428 8.428 0 0 0 0 0 0h390.965c0 0 0 0 0 0 4.655 0 8.428-3.773 8.428-8.428 0 0 0 0 0 0v-55.718zM1223.228 461.813c0-4.655-3.773-8.428-8.428-8.428 0 0 0 0 0 0h-390.965c0 0 0 0 0 0-4.655 0-8.428 3.773-8.428 8.428 0 0 0 0 0 0v55.718c0 4.655 3.773 8.428 8.428 8.428 0 0 0 0 0 0h390.965c0 0 0 0 0 0 4.655 0 8.428-3.773 8.428-8.428 0 0 0 0 0 0v-55.718zM1223.228 610.239c0-4.655-3.773-8.428-8.428-8.428 0 0 0 0 0 0h-390.965c0 0 0 0 0 0-4.655 0-8.428 3.773-8.428 8.428 0 0 0 0 0 0v55.484c0 4.655 3.773 8.428 8.428 8.428 0 0 0 0 0 0h390.965c0 0 0 0 0 0 4.655 0 8.428-3.773 8.428-8.428 0 0 0 0 0 0v-55.718z" />
<glyph unicode="&#xe910;" glyph-name="readme-logo" data-tags="ReadMe_Logo-text" horiz-adv-x="5185" d="M849.632 297.502c5.584-104.646 91.798-187.385 197.336-187.385 3.505 0 6.989 0.091 10.45 0.272 84.98 0.459 162.712 38.871 215.718 99.463 3.932 6.283 10.392 10.189 17.764 10.189 6.030 0 11.449-2.613 15.188-6.768l74.819-80.948c5.603-4.287 9.18-10.976 9.18-18.501 0-6.066-2.325-11.588-6.131-15.726-15.558-25.513-123.039-162.098-344.382-162.098s-403.626 146.541-403.626 395.712c-0.078 2.891-0.123 6.294-0.123 9.707 0 211.496 171.451 382.947 382.947 382.947 0.761 0 1.522-0.002 2.283-0.007 242.927 0.001 364.448-146.54 364.448-402.094 0-14.1-11.43-25.53-25.53-25.53h-510.596zM1187.901 417.492c-3.064 71.739-48.251 143.477-159.051 143.477-90.375 0-159.051-45.188-176.156-143.477h334.951zM4644.125 300.31c5.704-104.544 91.866-187.157 197.324-187.157 3.689 0 7.355 0.101 10.994 0.301 84.958 0.457 162.69 38.869 215.696 99.461 3.932 6.283 10.392 10.189 17.764 10.189 6.030 0 11.449-2.613 15.188-6.768l74.819-80.948c5.603-4.287 9.18-10.976 9.18-18.501 0-6.066-2.325-11.588-6.131-15.726-15.558-25.513-123.039-162.098-344.382-162.098s-403.626 146.541-403.626 395.712c-0.059 2.509-0.093 5.465-0.093 8.428 0 211.496 171.451 382.947 382.947 382.947 0.571 0 1.142-0.001 1.713-0.004 242.956 0 364.477-146.541 364.477-402.094 0-14.1-11.43-25.53-25.53-25.53h-510.596zM4982.139 419.79c-3.064 71.739-48.251 143.477-159.051 143.477-90.375 0-159.051-45.188-176.156-143.477h335.206zM2123.823-52.512c-2.637-0.388-5.682-0.609-8.779-0.609-35.108 0-63.569 28.461-63.569 63.569 0 3.096 0.221 6.141 0.649 9.119l-0.040 65.016h-4.595c-21.7-53.102-84.248-148.073-236.916-148.073-216.493 0-348.992 162.114-348.992 392.648 0 252.49 148.073 397.499 350.524 397.499 148.073 0 218.28-80.929 229.768-109.012h3.064v73.271c-0.076 0.649-0.119 1.4-0.119 2.162 0 10.857 8.801 19.658 19.658 19.658 0.762 0 1.513-0.043 2.252-0.128l140.068 0.008c0.395 0.027 0.855 0.043 1.319 0.043 11.28 0 20.424-9.144 20.424-20.424 0-0.464-0.015-0.925-0.046-1.381l0.003-577.422h58.208c0.731 0.104 1.574 0.164 2.432 0.164 10.011 0 18.126-8.115 18.126-18.126 0-1.324-0.142-2.614-0.411-3.858l0.022-121.402c0.089-0.696 0.139-1.502 0.139-2.319 0-10.716-8.687-19.403-19.403-19.403-0.318 0-0.635 0.008-0.949 0.023l-164.112-0.002zM2030.384 327.627c0 146.541-79.398 221.343-178.709 221.343-110.544 0-185.346-87.312-185.346-222.875s79.398-216.493 185.346-216.493c94.716 0 178.709 73.271 178.709 218.28zM586.164 531.355c-3.794 15.977 50.271 97.495 123.234 156.604 3.399 3.426 4.969 7.14 4.969 11.22 0 7.070-4.712 13.040-11.166 14.941-29.732 6.372-67.466 10.492-106.117 10.749-254.219 0.001-314.98-202.706-314.98-202.706h-6.127v173.092c0 11.985-9.716 21.7-21.7 21.7 0 0 0 0 0 0h-232.321c0 0 0 0 0 0-11.985 0-21.7-9.716-21.7-21.7v-121.522c-0.076-0.649-0.119-1.4-0.119-2.162 0-10.857 8.801-19.658 19.658-19.658 0.762 0 1.513 0.043 2.252 0.128l76.499-0.008v-436.304h-56.421c-0.827 0.127-1.781 0.199-2.752 0.199-10.575 0-19.147-8.573-19.147-19.147 0-0.971 0.072-1.925 0.212-2.857l-0.013-121.417c-0.027-0.395-0.043-0.855-0.043-1.319 0-11.28 9.144-20.424 20.424-20.424 0.464 0 0.925 0.015 1.381 0.046l316.508-0.003c0 0 0 0 0 0 11.985 0 21.7 9.716 21.7 21.7v121.522c0 11.985-9.716 21.7-21.7 21.7 0 0 0 0 0 0h-53.868v190.197c0 105.949 127.649 227.47 265.255 214.45 0.139-0.004 0.302-0.007 0.466-0.007 7.153 0 13.248 4.525 15.58 10.869zM3101.87 116.751v821.549c0.127 0.827 0.199 1.781 0.199 2.752 0 10.575-8.573 19.147-19.147 19.147-0.971 0-1.925-0.072-2.857-0.212l-229.663 0.013c-1.023 0.184-2.2 0.289-3.401 0.289-11.139 0-20.169-9.030-20.169-20.169 0-0.641 0.030-1.275 0.088-1.901l-0.006-121.442c-0.052-0.546-0.082-1.18-0.082-1.821 0-11.139 9.030-20.169 20.169-20.169 1.202 0 2.379 0.105 3.522 0.307l50.938-0.018v-112.331c0-32.678 3.064-63.824 3.064-63.824h-3.064c-14.041 29.615-74.802 110.544-214.961 110.544-216.493 0-355.375-162.114-355.375-391.116 0-254.021 148.073-397.499 350.524-397.499 146.541 0 222.875 94.971 235.385 126.117h3.064v-76.589c0-21.996 17.831-39.826 39.826-39.826h109.778c0 0 0 0 0 0 17.343 0 31.402 14.059 31.402 31.402v134.031zM2721.731 115.219c-112.076 0-185.346 90.375-185.346 224.407s79.398 214.961 185.346 214.961c94.971 0 178.709-70.207 178.709-216.493s-77.355-222.875-178.709-222.875zM4395.72 114.709h-57.442v338.27c0 160.582-90.375 274.19-258.617 274.19s-221.343-107.48-235.385-127.649c-37.529 77.866-113.863 127.649-224.407 127.649-173.092 0-227.47-119.99-235.385-134.031h-4.595v90.375c0.289 1.52 0.455 3.268 0.455 5.055 0 15.651-12.687 28.338-28.338 28.338-2.243 0-4.426-0.261-6.518-0.753l-112.139 0.038c0 0 0 0 0 0-18.753 0-33.955-15.202-33.955-33.955 0 0 0 0 0 0v-685.73c0-25.943 21.031-46.975 46.975-46.975 0 0 0 0 0 0h215.727c0 0 0 0 0 0 11.985 0 21.7 9.716 21.7 21.7v121.777c0.127 0.827 0.199 1.781 0.199 2.752 0 10.575-8.573 19.147-19.147 19.147-0.971 0-1.925-0.072-2.857-0.212l-54.018 0.013v330.611c16.666 59.359 70.304 102.155 133.938 102.155 1.11 0 2.217-0.013 3.321-0.039 99.658 0.003 127.485-65.353 127.485-160.579v-418.178c-0.001-0.076-0.002-0.166-0.002-0.255 0-10.011 8.115-18.126 18.126-18.126 0.001 0 0.001 0 0.002 0h245.597c0.395-0.027 0.855-0.043 1.319-0.043 11.28 0 20.424 9.144 20.424 20.424 0 0.464-0.015 0.925-0.046 1.381l0.003 120.949c0.127 0.827 0.199 1.781 0.199 2.752 0 10.575-8.573 19.147-19.147 19.147-0.971 0-1.925-0.072-2.857-0.212l-55.805 0.013v313.251c0.386 2.371-1.484 16.952-4.867 30.943 19.104 50.902 68.237 87.569 125.934 87.569 1.327 0 2.649-0.019 3.967-0.058 98.096 0.004 127.456-65.352 127.456-160.578v-364.565c0-39.62 32.119-71.739 71.739-71.739h191.473c0 0 0 0 0 0 11.985 0 21.7 9.716 21.7 21.7v121.777c0.134 0.852 0.211 1.835 0.211 2.835 0 10.575-8.573 19.147-19.147 19.147-1.157 0-2.29-0.103-3.391-0.299z" />
<glyph unicode="&#xe911;" glyph-name="readme" data-tags="ReadMe_Logo" horiz-adv-x="5654" d="M2198.385 431.924c4.451-83.413 73.172-149.364 157.297-149.364 2.794 0 5.571 0.073 8.33 0.216 67.738 0.366 129.697 30.984 171.949 79.282 3.134 5.008 8.283 8.122 14.16 8.122 4.806 0 9.126-2.083 12.106-5.395l59.638-64.524c4.466-3.417 7.317-8.749 7.317-14.747 0-4.835-1.853-9.237-4.887-12.535-12.401-20.337-98.074-129.208-274.506-129.208s-321.73 116.808-321.73 315.421c-0.062 2.304-0.098 5.017-0.098 7.738 0 168.583 136.663 305.246 305.246 305.246 0.607 0 1.213-0.002 1.819-0.005 193.636 0 290.501-116.807 290.501-320.508 0-11.239-9.111-20.35-20.35-20.35h-406.995zM2468.019 527.568c-2.442 57.183-38.461 114.366-126.779 114.366-72.038 0-126.779-36.019-140.413-114.366h266.989zM5222.97 434.162c4.546-83.332 73.227-149.182 157.287-149.182 2.941 0 5.863 0.081 8.764 0.24 67.72 0.365 129.68 30.983 171.931 79.28 3.134 5.008 8.283 8.122 14.16 8.122 4.806 0 9.126-2.083 12.106-5.395l59.638-64.524c4.466-3.417 7.317-8.749 7.317-14.747 0-4.835-1.853-9.237-4.887-12.535-12.401-20.337-98.074-129.208-274.506-129.208s-321.73 116.808-321.73 315.421c-0.047 2-0.074 4.356-0.074 6.718 0 168.583 136.663 305.246 305.246 305.246 0.455 0 0.91-0.001 1.365-0.003 193.659 0 290.524-116.807 290.524-320.509 0-11.239-9.111-20.35-20.35-20.35h-406.995zM5492.401 529.399c-2.442 57.183-38.461 114.366-126.779 114.366-72.038 0-126.779-36.019-140.413-114.366h267.192zM3214.041 152.928c-2.102-0.309-4.529-0.485-6.997-0.485-27.985 0-50.671 22.686-50.671 50.671 0 2.468 0.176 4.895 0.517 7.269l-0.032 51.824h-3.663c-17.297-42.328-67.154-118.029-188.846-118.029-172.566 0-278.181 129.221-278.181 312.979 0 201.259 118.029 316.846 279.402 316.846 118.029 0 173.99-64.509 183.148-86.893h2.442v58.404c-0.061 0.517-0.095 1.116-0.095 1.723 0 8.654 7.015 15.669 15.669 15.669 0.607 0 1.206-0.035 1.795-0.102l111.648 0.007c0.314 0.022 0.682 0.034 1.051 0.034 8.991 0 16.28-7.289 16.28-16.28 0-0.37-0.012-0.737-0.037-1.101l0.003-460.262h46.397c0.582 0.083 1.255 0.131 1.939 0.131 7.98 0 14.448-6.469 14.448-14.448 0-1.055-0.113-2.084-0.328-3.075l0.017-96.77c0.071-0.555 0.111-1.197 0.111-1.848 0-8.542-6.924-15.466-15.466-15.466-0.254 0-0.506 0.006-0.757 0.018l-130.814-0.001zM3139.561 455.936c0 116.808-63.288 176.432-142.448 176.432-88.114 0-147.739-69.596-147.739-177.653s63.288-172.566 147.739-172.566c75.498 0 142.448 58.404 142.448 173.99zM1988.375 618.328c-3.024 12.735 40.071 77.714 98.23 124.829 2.71 2.731 3.961 5.691 3.961 8.944 0 5.636-3.756 10.394-8.901 11.909-23.699 5.079-53.777 8.364-84.586 8.568-202.637 0.001-251.070-161.576-251.070-161.576h-4.884v137.971c0 9.553-7.744 17.297-17.297 17.297 0 0 0 0 0 0h-185.183c0 0 0 0 0 0-9.553 0-17.297-7.744-17.297-17.297v-96.865c-0.061-0.517-0.095-1.116-0.095-1.723 0-8.654 7.015-15.669 15.669-15.669 0.607 0 1.206 0.035 1.795 0.102l60.977-0.007v-347.777h-44.973c-0.659 0.101-1.42 0.158-2.193 0.158-8.429 0-15.262-6.833-15.262-15.262 0-0.774 0.058-1.534 0.169-2.277l-0.010-96.781c-0.022-0.314-0.034-0.682-0.034-1.051 0-8.991 7.289-16.28 16.28-16.28 0.37 0 0.737 0.012 1.101 0.037l252.288-0.003c0 0 0 0 0 0 9.553 0 17.297 7.744 17.297 17.297v96.865c0 9.553-7.744 17.297-17.297 17.297 0 0 0 0 0 0h-42.938v151.606c0 84.452 101.749 181.316 211.434 170.938 0.111-0.003 0.241-0.005 0.372-0.005 5.701 0 10.56 3.607 12.419 8.664zM3993.641 287.847v654.855c0.101 0.659 0.158 1.42 0.158 2.193 0 8.429-6.833 15.262-15.262 15.262-0.774 0-1.534-0.058-2.277-0.169l-183.064 0.010c-0.815 0.146-1.753 0.23-2.711 0.23-8.879 0-16.076-7.198-16.076-16.076 0-0.511 0.024-1.016 0.070-1.515l-0.005-96.801c-0.042-0.435-0.066-0.94-0.066-1.451 0-8.879 7.198-16.076 16.076-16.076 0.958 0 1.896 0.084 2.808 0.244l40.603-0.014v-89.539c0-26.048 2.442-50.874 2.442-50.874h-2.442c-11.192 23.606-59.625 88.114-171.345 88.114-172.566 0-283.269-129.221-283.269-311.758 0-202.48 118.029-316.846 279.402-316.846 116.808 0 177.653 75.701 187.625 100.528h2.442v-61.049c0-17.533 14.213-31.746 31.746-31.746h87.504c0 0 0 0 0 0 13.824 0 25.030 11.206 25.030 25.030v106.836zM3690.633 286.626c-89.335 0-147.739 72.038-147.739 178.874s63.288 171.345 147.739 171.345c75.701 0 142.448-55.962 142.448-172.566s-61.66-177.653-142.448-177.653zM5024.967 286.219h-45.787v269.634c0 128-72.038 218.556-206.143 218.556s-176.432-85.672-187.625-101.749c-29.914 62.067-90.76 101.749-178.874 101.749-137.971 0-181.316-95.644-187.625-106.836h-3.663v72.038c0.23 1.212 0.362 2.605 0.362 4.030 0 12.475-10.113 22.588-22.588 22.588-1.788 0-3.528-0.208-5.196-0.6l-89.386 0.030c0 0 0 0 0 0-14.948 0-27.065-12.117-27.065-27.065 0 0 0 0 0 0v-546.595c0-20.68 16.764-37.444 37.444-37.444 0 0 0 0 0 0h171.955c0 0 0 0 0 0 9.553 0 17.297 7.744 17.297 17.297v97.068c0.101 0.659 0.158 1.42 0.158 2.193 0 8.429-6.833 15.262-15.262 15.262-0.774 0-1.534-0.058-2.277-0.169l-43.058 0.010v263.529c13.284 47.315 56.039 81.428 106.762 81.428 0.885 0 1.767-0.010 2.647-0.031 79.437 0.002 101.618-52.093 101.618-127.998v-333.329c-0.001-0.061-0.001-0.132-0.001-0.203 0-7.98 6.469-14.448 14.448-14.448 0.001 0 0.001 0 0.002 0h195.765c0.314-0.022 0.682-0.034 1.051-0.034 8.991 0 16.28 7.289 16.28 16.28 0 0.37-0.012 0.737-0.037 1.101l0.003 96.409c0.101 0.659 0.158 1.42 0.158 2.193 0 8.429-6.833 15.262-15.262 15.262-0.774 0-1.534-0.058-2.277-0.169l-44.482 0.010v249.692c0.307 1.89-1.183 13.513-3.879 24.665 15.227 40.574 54.392 69.801 100.382 69.801 1.058 0 2.112-0.015 3.162-0.046 78.192 0.004 101.595-52.092 101.595-127.996v-290.595c0-31.581 25.602-57.183 57.183-57.183h152.623c0 0 0 0 0 0 9.553 0 17.297 7.744 17.297 17.297v97.068c0.107 0.679 0.168 1.462 0.168 2.26 0 8.429-6.833 15.262-15.262 15.262-0.922 0-1.825-0.082-2.703-0.239zM1120.458 825.895h-296.089c-0.018 0-0.040 0-0.061 0-103.456 0-190.091-72.016-212.51-168.652-22.994 96.636-109.629 168.652-213.085 168.652-0.021 0-0.043 0-0.064 0h-295.882c-56.194 0-101.749-45.554-101.749-101.749v-520.954c0-56.194 45.554-101.749 101.749-101.749h190.067c216.521 0 281.234-52.095 312.165-159.339 0.654-2.479 2.876-4.276 5.518-4.276 0.063 0 0.126 0.001 0.189 0.003h1.212c0.054-0.002 0.117-0.003 0.18-0.003 2.642 0 4.864 1.798 5.509 4.237 31.144 107.283 95.856 159.378 312.174 159.378h190.067c56.194 0 101.749 45.554 101.749 101.749v520.954c0 0.001 0 0.001 0 0.002 0 55.98-45.207 101.401-101.105 101.747zM513.831 263.631c0-4.046-3.28-7.326-7.326-7.326 0 0 0 0 0 0h-339.841c0 0 0 0 0 0-4.046 0-7.326 3.28-7.326 7.326 0 0 0 0 0 0v48.432c0 4.046 3.28 7.326 7.326 7.326 0 0 0 0 0 0h339.841c0 0 0 0 0 0 4.046 0 7.326-3.28 7.326-7.326 0 0 0 0 0 0v-48.432zM513.831 392.649c0-4.046-3.28-7.326-7.326-7.326 0 0 0 0 0 0h-339.841c0 0 0 0 0 0-4.046 0-7.326 3.28-7.326 7.326 0 0 0 0 0 0v48.432c0 4.046 3.28 7.326 7.326 7.326 0 0 0 0 0 0h339.841c0 0 0 0 0 0 4.046 0 7.326-3.28 7.326-7.326 0 0 0 0 0 0v-48.432zM513.831 521.666c0-4.046-3.28-7.326-7.326-7.326 0 0 0 0 0 0h-339.841c0 0 0 0 0 0-4.046 0-7.326 3.28-7.326 7.326 0 0 0 0 0 0v48.432c0 4.046 3.28 7.326 7.326 7.326 0 0 0 0 0 0h339.841c0 0 0 0 0 0 4.046 0 7.326-3.28 7.326-7.326 0 0 0 0 0 0v-48.432zM1063.275 263.835c0-4.046-3.28-7.326-7.326-7.326 0 0 0 0 0 0h-339.841c0 0 0 0 0 0-4.046 0-7.326 3.28-7.326 7.326 0 0 0 0 0 0v48.432c0 4.046 3.28 7.326 7.326 7.326 0 0 0 0 0 0h339.841c0 0 0 0 0 0 4.046 0 7.326-3.28 7.326-7.326 0 0 0 0 0 0v-48.432zM1063.275 392.852c0-4.046-3.28-7.326-7.326-7.326 0 0 0 0 0 0h-339.841c0 0 0 0 0 0-4.046 0-7.326 3.28-7.326 7.326 0 0 0 0 0 0v48.432c0 4.046 3.28 7.326 7.326 7.326 0 0 0 0 0 0h339.841c0 0 0 0 0 0 4.046 0 7.326-3.28 7.326-7.326 0 0 0 0 0 0v-48.432zM1063.275 521.87c0-4.046-3.28-7.326-7.326-7.326 0 0 0 0 0 0h-339.841c0 0 0 0 0 0-4.046 0-7.326 3.28-7.326 7.326 0 0 0 0 0 0v48.229c0 4.046 3.28 7.326 7.326 7.326 0 0 0 0 0 0h339.841c0 0 0 0 0 0 4.046 0 7.326-3.28 7.326-7.326 0 0 0 0 0 0v-48.432z" />
<glyph unicode="&#xe912;" glyph-name="filled-star" data-tags="ReadMe, Icon, Star, Filled" d="M824.832-46.592c-0.023 0-0.049 0-0.076 0-5.050 0-9.789 1.329-13.887 3.657l-298.869 163.255-299.52-163.328c-3.809-1.999-8.322-3.172-13.109-3.172-15.835 0-28.672 12.837-28.672 28.672 0 1.481 0.112 2.935 0.329 4.355l54.252 326.497-217.088 217.6c-4.992 5.153-8.069 12.187-8.069 19.94 0 13.981 10.007 25.625 23.249 28.16l327.347 54.301 135.68 271.36c4.558 9.775 14.302 16.429 25.6 16.429s21.042-6.653 25.527-16.256l135.753-271.533 327.168-54.272c13.422-2.563 23.429-14.207 23.429-28.188 0-7.753-3.077-14.786-8.076-19.947l-217.081-217.080 54.272-326.656c0.293-1.539 0.461-3.31 0.461-5.12 0-15.817-12.808-28.643-28.618-28.672z" />
<glyph unicode="&#xe913;" glyph-name="page-header" data-tags="ReadMe, Icon, Page, Header" d="M946.688 972.442h-869.99c-42.24 0-76.595-34.355-76.595-76.595v-819.149c0-42.24 34.355-76.595 76.595-76.595h869.99c42.24 0 76.646 34.355 76.646 76.595v819.149c0 42.24-34.406 76.595-76.646 76.595zM734.31 562.688l179.354 153.6h58.47v-2.15l-176.845-151.45h-60.979zM594.586 562.688l179.405 153.6h60.979l-179.354-153.6h-61.030zM454.861 562.688l179.354 153.6h61.030l-179.405-153.6h-60.979zM315.136 562.688l179.354 153.6h60.979l-179.354-153.6h-60.979zM175.309 562.688l179.354 153.6h61.133l-179.354-153.6h-61.133zM51.302 562.688v14.285l162.714 139.315h61.952l-179.354-153.6h-45.312zM51.302 716.288h84.019l-84.019-71.936v71.936zM972.134 646.707v-84.019h-98.15l98.15 84.019zM76.698 921.242h869.99c14.029 0 25.446-11.418 25.446-25.395v-128.358h-920.832v128.358c0 13.978 11.418 25.395 25.395 25.395zM946.688 51.302h-869.99c-13.978 0-25.395 11.418-25.395 25.395v434.79h920.832v-434.79c0-13.978-11.366-25.395-25.446-25.395zM153.344 844.851c0-14.138-11.462-25.6-25.6-25.6s-25.6 11.462-25.6 25.6c0 14.138 11.462 25.6 25.6 25.6s25.6-11.462 25.6-25.6zM255.744 844.851c0-14.138-11.462-25.6-25.6-25.6s-25.6 11.462-25.6 25.6c0 14.138 11.462 25.6 25.6 25.6s25.6-11.462 25.6-25.6zM358.144 844.851c0-14.138-11.462-25.6-25.6-25.6s-25.6 11.462-25.6 25.6c0 14.138 11.462 25.6 25.6 25.6s25.6-11.462 25.6-25.6zM435.251 409.088h-255.949c-14.131 0-25.6-11.469-25.6-25.6s11.469-25.6 25.6-25.6h255.949c14.131 0 25.6 11.469 25.6 25.6s-11.469 25.6-25.6 25.6zM179.302 255.488h204.749c14.131 0 25.6 11.469 25.6 25.6s-11.469 25.6-25.6 25.6h-204.749c-14.131 0-25.6-11.469-25.6-25.6s11.469-25.6 25.6-25.6zM844.851 409.088h-255.949c-14.131 0-25.6-11.469-25.6-25.6s11.469-25.6 25.6-25.6h255.949c14.131 0 25.6 11.469 25.6 25.6s-11.469 25.6-25.6 25.6zM588.902 255.488h204.749c14.131 0 25.6 11.469 25.6 25.6s-11.469 25.6-25.6 25.6h-204.749c-14.131 0-25.6-11.469-25.6-25.6s11.469-25.6 25.6-25.6zM435.251 204.288h-255.949c-14.131 0-25.6-11.469-25.6-25.6s11.469-25.6 25.6-25.6h255.949c14.131 0 25.6 11.469 25.6 25.6s-11.469 25.6-25.6 25.6zM844.851 204.288h-255.949c-14.131 0-25.6-11.469-25.6-25.6s11.469-25.6 25.6-25.6h255.949c14.131 0 25.6 11.469 25.6 25.6s-11.469 25.6-25.6 25.6z" />
<glyph unicode="&#xe914;" glyph-name="page-body" data-tags="ReadMe, Icon, Page, Body" d="M946.688 972.442h-869.99c-42.24 0-76.595-34.355-76.595-76.595v-819.149c0-42.24 34.355-76.595 76.595-76.595h869.99c42.24 0 76.646 34.355 76.646 76.595v819.149c0 42.24-34.406 76.595-76.646 76.595zM76.698 921.242h869.99c14.029 0 25.446-11.418 25.446-25.395v-128.358h-920.832v128.358c0 13.978 11.418 25.395 25.395 25.395zM946.688 51.302h-869.99c-13.978 0-25.395 11.418-25.395 25.395v639.59h920.832v-639.59c0-13.978-11.366-25.395-25.446-25.395zM153.344 844.851c0-14.138-11.462-25.6-25.6-25.6s-25.6 11.462-25.6 25.6c0 14.138 11.462 25.6 25.6 25.6s25.6-11.462 25.6-25.6zM255.744 844.851c0-14.138-11.462-25.6-25.6-25.6s-25.6 11.462-25.6 25.6c0 14.138 11.462 25.6 25.6 25.6s25.6-11.462 25.6-25.6zM358.144 844.851c0-14.138-11.462-25.6-25.6-25.6s-25.6 11.462-25.6 25.6c0 14.138 11.462 25.6 25.6 25.6s25.6-11.462 25.6-25.6zM845.056 511.283h-665.754c-14.131 0-25.6-11.469-25.6-25.6v-307.2c0-14.131 11.469-25.6 25.6-25.6h665.754c14.131 0 25.6 11.469 25.6 25.6v307.2c0 14.182-11.469 25.6-25.6 25.6zM701.798 204.083l117.658 100.71v-63.898l-43.008-36.813h-74.65zM548.454 204.083l271.002 232.038v-63.898l-196.352-168.141h-74.65zM408.781 204.083l299.008 256h60.928l-298.957-256h-60.979zM265.882 204.083l301.875 256h61.286l-299.008-256h-64.154zM341.811 460.083l-136.909-121.6v56.525l73.318 65.126h63.59zM204.902 269.978l214.067 190.106h69.734l-283.75-240.64v50.534z" />
<glyph unicode="&#xe915;" glyph-name="page-footer" data-tags="ReadMe, Icon, Page, Footer" d="M946.688 972.493h-869.99c-42.24 0-76.646-34.406-76.646-76.646v-819.149c0-42.24 34.355-76.595 76.646-76.595h869.99c42.24 0 76.595 34.355 76.595 76.595v819.149c0 42.24-34.304 76.646-76.595 76.646zM734.31 51.302l179.354 153.6h58.419v-2.15l-176.794-151.45h-60.979zM594.586 51.302l179.405 153.6h60.979l-179.354-153.6h-61.030zM454.861 51.302l179.354 153.6h61.030l-179.405-153.6h-60.979zM315.136 51.302l179.405 153.6h60.979l-179.354-153.6h-61.030zM175.309 51.302l179.405 153.6h61.133l-179.405-153.6h-61.133zM51.302 204.902h84.019l-84.019-71.936v71.936zM51.302 256.102v460.186h920.832v-460.186h-920.832zM76.698 921.293h869.99c13.978 0 25.395-11.418 25.395-25.446v-128.358h-920.781v128.358c0 14.029 11.366 25.446 25.395 25.446zM53.197 67.174l160.819 137.677h61.952l-179.405-153.6h-19.866c-10.65 0.051-19.712 6.656-23.501 15.923zM946.688 51.302h-72.704l98.099 84.019v-58.624c0-14.029-11.366-25.395-25.395-25.395zM153.344 844.851c0-14.138-11.462-25.6-25.6-25.6s-25.6 11.462-25.6 25.6c0 14.138 11.462 25.6 25.6 25.6s25.6-11.462 25.6-25.6zM255.744 844.851c0-14.138-11.462-25.6-25.6-25.6s-25.6 11.462-25.6 25.6c0 14.138 11.462 25.6 25.6 25.6s25.6-11.462 25.6-25.6zM358.144 844.851c0-14.138-11.462-25.6-25.6-25.6s-25.6 11.462-25.6 25.6c0 14.138 11.462 25.6 25.6 25.6s25.6-11.462 25.6-25.6zM435.251 613.888h-256c-14.131 0-25.6-11.469-25.6-25.6s11.469-25.6 25.6-25.6h256c14.131 0 25.6 11.469 25.6 25.6s-11.469 25.6-25.6 25.6zM179.302 460.288h204.8c14.131 0 25.6 11.469 25.6 25.6s-11.469 25.6-25.6 25.6h-204.8c-14.131 0-25.6-11.469-25.6-25.6s11.418-25.6 25.6-25.6zM588.902 562.688h255.949c14.131 0 25.6 11.469 25.6 25.6s-11.469 25.6-25.6 25.6h-255.949c-14.131 0-25.6-11.469-25.6-25.6s11.469-25.6 25.6-25.6zM588.902 460.288h204.749c14.131 0 25.6 11.469 25.6 25.6s-11.469 25.6-25.6 25.6h-204.749c-14.131 0-25.6-11.469-25.6-25.6s11.469-25.6 25.6-25.6zM435.251 409.088h-256c-14.131 0-25.6-11.469-25.6-25.6s11.469-25.6 25.6-25.6h256c14.131 0 25.6 11.469 25.6 25.6s-11.469 25.6-25.6 25.6zM844.851 409.088h-255.949c-14.131 0-25.6-11.469-25.6-25.6s11.469-25.6 25.6-25.6h255.949c14.131 0 25.6 11.469 25.6 25.6s-11.469 25.6-25.6 25.6z" />
<glyph unicode="&#xe916;" glyph-name="logo-settings" data-tags="ReadMe, Icon, Logo, Settings" d="M996.71 265.677l-65.587 65.587-41.83-8.038-23.859 35.277h-92.826l-23.859-35.277-41.83 8.038-65.587-65.587 8.090-41.984-34.714-24.064v-92.57l34.714-23.757-8.090-41.83 65.587-65.587 41.574 7.987 22.733-35.021h93.338l24.013 35.174 42.598-8.141 65.587 65.587-8.038 41.83 35.226 23.859v92.826l-35.226 23.859 7.987 41.83zM972.698 134.4l-40.755-27.648 9.37-48.23-27.187-27.187-48.896 9.37-27.699-40.55h-38.554l-26.47 40.602-48.64-9.421-27.187 27.187 9.318 48.026-40.090 27.546v38.758l40.090 27.75-9.318 48.077 27.187 27.187 48.333-9.37 27.546 40.806h38.451l27.546-40.806 48.333 9.37 27.187-27.187-9.165-48.435 40.55-27.443v-38.4zM819.149 256.973c-56.627 0-102.758-46.080-102.758-102.758s46.080-102.758 102.758-102.758 102.758 46.080 102.758 102.758-46.131 102.758-102.758 102.758zM819.149 102.707c-28.416 0-51.558 23.142-51.558 51.558s23.142 51.558 51.558 51.558 51.558-23.142 51.558-51.558c0-28.416-23.142-51.558-51.558-51.558zM612.813 11.213c-32.922-7.373-66.867-11.11-100.813-11.11-254.054 0-460.698 206.643-460.698 460.698s206.643 460.698 460.698 460.698 460.698-206.643 460.698-460.698c0-31.232-3.174-62.515-9.37-92.877-2.816-13.875 6.144-27.341 20.019-30.208 13.67-2.765 27.341 6.093 30.208 20.019 6.861 33.741 10.342 68.454 10.342 103.117 0 282.266-229.632 511.898-511.898 511.898s-511.898-229.683-511.898-511.949 229.632-511.898 511.898-511.898c37.683 0 75.418 4.147 112.026 12.288 13.824 3.123 22.426 16.794 19.405 30.618-3.123 13.67-16.282 22.426-30.618 19.405zM860.467 569.344c-3.43 10.496-16.794 20.173-27.853 20.173h-223.59l-69.171 212.838c-3.994 11.981-15.206 20.070-27.853 20.070-11.11 0-24.474-9.728-27.904-20.275l-69.12-212.634h-223.59c-12.698 0-23.859-8.090-27.853-20.173-3.482-10.547 1.638-26.368 10.598-32.922l180.941-131.43-69.222-212.736c-3.84-12.083 0.461-25.19 10.65-32.666 4.506-3.277 10.957-4.966 17.357-4.966 6.349 0 12.698 1.638 17.203 4.915l180.941 131.43 47.462-34.509c11.418-8.243 27.392-5.837 35.738 5.632 8.294 11.469 5.786 27.443-5.632 35.738l-60.262 43.776c-9.011 6.605-25.549 6.554-34.56 0.051l-139.315-101.222 53.248 163.789c3.379 10.547-1.69 26.266-10.65 32.768l-139.315 101.274h172.186c11.11 0 24.474 9.677 27.904 20.275l53.197 163.738 53.248-163.942c3.482-10.445 16.845-20.070 27.853-20.070h172.186l-141.517-102.81c-8.96-6.502-12.698-18.074-9.318-28.621l17.766-54.733c4.352-13.414 18.637-20.89 32.256-16.435 13.466 4.352 20.787 18.79 16.435 32.256l-11.981 37.069 181.094 131.584c10.24 7.578 14.387 20.736 10.445 32.768z" />
<glyph unicode="&#xe917;" glyph-name="cloud" data-tags="cloud" d="M746.667 85.334h-362.667c-63.285-0.017-125.329 17.566-179.2 50.773-54.129 33.071-97.973 80.567-126.612 137.169-28.639 56.597-40.939 120.055-35.522 183.258 5.438 62.988 28.263 123.229 65.932 174.005s88.698 90.094 147.402 113.568c41.625 16.806 86.156 25.236 131.044 24.808s89.248-9.707 130.545-27.303c41.297-17.597 78.72-43.167 110.118-75.245 31.403-32.079 56.166-70.036 72.879-111.699h46.080c62.238 0 121.924-24.724 165.935-68.732 44.006-44.011 68.732-103.697 68.732-165.935s-24.725-121.924-68.732-165.935c-44.011-44.006-103.697-68.732-165.935-68.732zM384 682.667c-39.851 0.017-79.156-9.271-114.784-27.122s-66.598-43.774-90.442-75.705c-28.386-38.088-45.615-83.324-49.759-130.641-4.145-47.322 4.959-94.865 26.292-137.306 21.28-42.428 53.936-78.101 94.321-103.040 40.385-24.943 86.908-38.161 134.373-38.187h362.667c39.607 0 77.589 15.731 105.596 43.738 28.002 28.006 43.738 65.988 43.738 105.596s-15.735 77.589-43.738 105.596c-28.006 28.002-65.988 43.738-105.596 43.738h-76.373c-9.468-0.405-18.799 2.351-26.522 7.838-7.727 5.487-13.406 13.385-16.145 22.455-12.962 45.366-38.212 86.267-72.96 118.187-35.588 31.46-79.121 52.563-125.867 61.013-14.797 2.549-29.785 3.834-44.8 3.84z" />
<glyph unicode="&#xe918;" glyph-name="custom-css" data-tags="ReadMe, Icon, CSS" d="M771.43 972.493h-570.675c-110.643 0-200.653-90.061-200.653-200.704v-571.034c0-110.643 90.010-200.653 200.653-200.653h570.675c110.643 0 200.704 90.010 200.704 200.653v571.034c0 110.643-90.010 200.704-200.704 200.704zM920.934 200.755c0-82.381-67.072-149.453-149.504-149.453h-570.675c-82.381 0-149.453 67.072-149.453 149.453v571.034c0 82.432 67.072 149.504 149.453 149.504h570.675c82.432 0 149.504-67.072 149.504-149.504v-571.034zM537.651 665.907h-63.078c-35.738 0-64.87-29.082-64.87-64.87v-76.032c0-35.738 29.082-64.819 64.87-64.819h23.91c7.475 0 13.619-6.093 13.619-13.67v-74.547c0-7.526-6.093-13.67-13.619-13.67h-37.581v25.395c0 14.131-11.469 25.6-25.6 25.6s-25.6-11.469-25.6-25.6v-50.995c0-14.131 11.469-25.6 25.6-25.6h63.13c35.738 0 64.819 29.082 64.819 64.87v74.547c0 35.738-29.030 64.87-64.819 64.87h-23.859c-7.526 0-13.67 6.093-13.67 13.619v76.032c0 7.526 6.093 13.67 13.67 13.67h37.478v-25.395c0-14.131 11.469-25.6 25.6-25.6s25.6 11.469 25.6 25.6v50.995c0 14.131-11.469 25.6-25.6 25.6zM742.451 665.907h-63.078c-35.738 0-64.87-29.082-64.87-64.87v-76.032c0-35.738 29.082-64.819 64.87-64.819h23.91c7.475 0 13.619-6.093 13.619-13.67v-74.547c0-7.526-6.093-13.67-13.619-13.67h-37.53v25.395c0 14.131-11.469 25.6-25.6 25.6s-25.6-11.469-25.6-25.6v-50.995c0-14.131 11.469-25.6 25.6-25.6h63.13c35.738 0 64.819 29.082 64.819 64.87v74.547c0 35.738-29.030 64.87-64.819 64.87h-23.91c-7.526 0-13.67 6.093-13.67 13.619v76.032c0 7.526 6.093 13.67 13.67 13.67h37.478v-25.395c0-14.131 11.469-25.6 25.6-25.6s25.6 11.469 25.6 25.6v50.995c0 14.131-11.469 25.6-25.6 25.6zM333.005 665.907h-43.008c-46.95 0-85.146-38.195-85.146-85.146v-188.467c0-46.95 38.195-85.146 85.146-85.146h43.008c14.131 0 25.6 11.469 25.6 25.6v51.558c0 14.131-11.469 25.6-25.6 25.6s-25.6-11.469-25.6-25.6v-25.958h-17.408c-18.688 0-33.946 15.258-33.946 33.946v188.467c0 18.688 15.258 33.946 33.946 33.946h17.408v-25.958c0-14.131 11.469-25.6 25.6-25.6s25.6 11.469 25.6 25.6v51.558c0 14.131-11.469 25.6-25.6 25.6z" />
<glyph unicode="&#xe919;" glyph-name="cloud-off" data-tags="cloud-off" d="M922.287-39.5c-5.197 2.125-9.929 5.252-13.914 9.207l-119.616 119.616c-14.144-2.654-28.518-3.994-42.944-3.989h-361.813c-76.572-0.124-150.962 25.506-211.212 72.764s-102.858 113.404-120.977 187.802c-18.119 74.398-10.697 152.725 21.075 222.395 23.796 52.18 60.214 97.232 105.59 131.309l-123.437 123.437c-8.034 8.034-12.548 18.931-12.548 30.293s4.514 22.259 12.548 30.293c8.035 8.034 18.931 12.548 30.293 12.548s22.259-4.514 30.293-12.548l853.333-853.333c3.998-3.968 7.172-8.687 9.34-13.884 2.167-5.201 3.281-10.778 3.281-16.41s-1.114-11.209-3.281-16.41c-2.167-5.197-5.342-9.916-9.34-13.884-3.985-3.955-8.717-7.083-13.914-9.207-5.197-2.121-10.765-3.2-16.38-3.166-5.615-0.034-11.183 1.045-16.38 3.166zM707.413 170.667l-467.613 467.613c-26.501-18.086-49.444-41.046-67.557-67.75-23.898-35.232-38.632-75.87-42.868-118.23-4.236-42.364 2.159-85.111 18.607-124.378s42.429-73.813 75.591-100.51c45.557-36.446 102.086-56.439 160.427-56.747h323.413zM918.613 192c-6.502-0.026-12.924 1.434-18.773 4.267-10.125 5.039-17.835 13.892-21.431 24.614-3.601 10.718-2.799 22.43 2.231 32.559 11.26 22.852 16.538 48.183 15.343 73.626-1.195 25.446-8.823 50.172-22.17 71.868-13.675 21.444-32.435 39.177-54.613 51.627-22.191 12.322-47.155 18.782-72.533 18.773h-76.373c-9.468-0.405-18.799 2.355-26.522 7.838-7.727 5.487-13.406 13.385-16.145 22.455-13.79 46.631-40.576 88.369-77.222 120.331s-81.638 52.826-129.711 60.149c-5.603 0.785-10.997 2.665-15.873 5.534s-9.14 6.67-12.547 11.187c-6.881 9.122-9.857 20.603-8.273 31.919s7.599 21.539 16.721 28.42c9.122 6.881 20.603 9.857 31.92 8.273 64.555-9.24 125.111-36.78 174.507-79.36 41.037-35.857 73.050-80.877 93.44-131.413h46.080c60.301-0.141 118.251-23.405 161.907-64.999 43.661-41.596 69.7-98.351 72.759-158.575 1.647-39.829-6.716-79.437-24.32-115.2-3.52-7.181-8.986-13.227-15.774-17.451-6.788-4.228-14.63-6.46-22.626-6.443z" />
<glyph unicode="&#xe91a;" glyph-name="shield-check" data-tags="shield-check" d="M507.383 809.028c-78.908-68.835-195.018-126.361-294.050-126.361v-298.666c0-95.398 32.887-164.736 84.768-217.873 53.043-54.323 127.872-93.585 213.745-123.238l0.964-0.346c85.551 29.854 160.171 69.184 213.116 123.503 51.853 53.201 84.74 122.556 84.74 217.954v298.666c-98.999 0-214.682 57.069-294.054 126.365-1.297 1.069-2.927 1.655-4.612 1.655s-3.315-0.587-4.617-1.658zM451.857 873.826c16.768 14.324 38.093 22.193 60.143 22.193s43.375-7.87 60.143-22.193l0.367-0.316v-0.002c69.952-61.159 166.601-105.508 238.157-105.508 22.63 0 44.335-8.99 60.339-24.993s24.994-37.708 24.994-60.34v-298.666c0-117.935-41.779-208.58-108.966-277.513-66.022-67.742-154.688-112.649-246.485-144.644l-0.346-0.119h-0.004c-18.398-6.234-38.37-6.003-56.61 0.644-91.901 31.778-180.536 76.54-246.543 144.145-67.266 68.89-109.045 159.552-109.045 277.487v298.666c0 22.632 8.99 44.337 24.994 60.34s37.708 24.993 60.34 24.993c71.526 0 168.602 44.748 238.17 105.52l0.354 0.308v-0.002zM670.17 542.17c16.661-16.663 16.661-43.678 0-60.34l-170.667-170.667c-16.661-16.661-43.678-16.661-60.339 0l-85.334 85.333c-16.662 16.661-16.662 43.678 0 60.339s43.677 16.661 60.34 0l55.163-55.164 140.497 140.497c16.661 16.662 43.678 16.662 60.339 0z" />
<glyph unicode="&#xe91b;" glyph-name="custom-js" data-tags="ReadMe, Icon, JS" d="M771.43 972.493h-570.675c-110.643 0-200.653-90.061-200.653-200.704v-571.034c0-110.643 90.010-200.653 200.653-200.653h570.675c110.643 0 200.704 90.010 200.704 200.653v571.034c0 110.643-90.010 200.704-200.704 200.704zM920.934 200.755c0-82.381-67.072-149.453-149.504-149.453h-570.675c-82.381 0-149.453 67.072-149.453 149.453v571.034c0 82.432 67.072 149.504 149.453 149.504h570.675c82.432 0 149.504-67.072 149.504-149.504v-571.034zM640.051 665.907h-63.078c-35.738 0-64.87-29.082-64.87-64.87v-76.032c0-35.738 29.082-64.819 64.87-64.819h23.91c7.475 0 13.619-6.093 13.619-13.67v-74.547c0-7.526-6.093-13.67-13.619-13.67h-37.53v25.395c0 14.131-11.469 25.6-25.6 25.6s-25.6-11.469-25.6-25.6v-50.995c0-14.131 11.469-25.6 25.6-25.6h63.13c35.738 0 64.819 29.082 64.819 64.87v74.547c0 35.738-29.030 64.87-64.819 64.87h-23.91c-7.526 0-13.67 6.093-13.67 13.619v76.032c0 7.526 6.093 13.67 13.67 13.67h37.478v-25.395c0-14.131 11.469-25.6 25.6-25.6s25.6 11.469 25.6 25.6v50.995c0 14.131-11.469 25.6-25.6 25.6zM435.302 665.19c-0.051 0-0.154-0.051-0.205-0.051s-0.102 0.051-0.205 0.051h-50.432c-14.131 0-25.6-11.469-25.6-25.6s11.469-25.6 25.6-25.6h25.242v-250.214c0-3.021-2.458-5.427-5.427-5.427h-40.602c-3.021 0-5.376 2.458-5.376 5.427v20.326c0 14.131-11.469 25.6-25.6 25.6s-25.6-11.469-25.6-25.6v-20.326c0-31.232 25.395-56.627 56.576-56.627h40.602c31.232 0 56.627 25.395 56.627 56.627v275.814c0 14.131-11.469 25.6-25.6 25.6z" />
<glyph unicode="&#xe91c;" glyph-name="swagger" data-tags="swagger" horiz-adv-x="1221" d="M855.209 379.921c38.822 0 72.58 31.508 72.58 68.642s-33.196 69.767-72.018 69.767c-38.822 0-71.455-32.633-70.892-70.33 0.563-37.134 32.633-68.079 70.33-68.079zM612.149 379.921c41.073 0 69.204 27.007 69.204 67.516 0.563 42.198-27.569 70.892-68.642 71.455-41.073 0-70.33-29.82-69.767-70.892 0.563-39.947 28.695-68.079 69.204-68.079zM369.653 518.33c-39.947 0-72.018-31.508-71.455-70.33 0.563-38.259 31.508-68.079 70.33-68.079 41.073 0 71.455 30.382 71.455 69.767-1.125 37.697-32.070 68.642-70.33 68.642zM144.598 449.125c63.578 41.635 88.334 100.149 92.273 168.791 3.376 51.2 2.251 102.963 6.189 154.163 4.501 57.389 10.127 78.769 74.268 74.831 29.82-1.688 36.009 11.253 32.070 36.009-0.563 3.938 0 7.314 0 11.253 0 64.703 0 64.703-66.391 63.015-94.523-2.251-151.912-57.389-156.976-151.349-2.813-56.826-3.938-114.215-5.626-171.042-2.251-81.582-23.068-106.901-100.712-123.218-6.752-1.125-15.191-12.941-15.754-20.818-2.251-25.319 0-50.637-1.125-75.956-1.125-21.943 6.189-29.82 28.695-29.82 39.947 0 65.266-18.004 75.956-54.013 6.752-23.631 11.253-48.949 12.378-74.268 3.376-53.451 3.376-106.338 6.189-159.789 6.752-123.78 88.897-172.167 222.804-150.787v52.888c0 49.512 0 49.512-50.075 51.763-34.884 1.688-47.262 10.127-51.2 45.574-4.501 44.448-2.813 89.459-6.189 134.47-4.501 83.27-14.066 165.415-96.774 218.303zM1080.826 448.563c-65.266-39.947-87.209-101.837-92.835-169.916-4.501-51.2-4.501-102.963-6.189-154.163-1.688-59.077-14.629-74.831-72.58-73.705-29.257 0.563-36.009-9.002-35.446-37.134 1.688-81.020 0.563-81.020 82.145-72.58 78.769 7.877 119.279 42.76 136.721 120.404 6.189 28.132 8.44 56.826 10.127 86.084 2.813 50.075 2.251 100.712 6.752 151.349 5.064 58.514 32.070 82.708 90.022 86.646 15.754 1.125 21.943 6.752 21.38 21.943-0.563 25.319-1.125 50.637 0 75.956 1.125 21.38-6.189 29.82-28.695 29.82-42.198 0-64.703 16.316-75.956 56.826-7.314 25.881-11.253 52.888-12.941 79.895-3.376 52.325-2.251 104.651-6.189 156.976-8.44 101.275-62.453 150.224-164.29 150.787-57.952 0.563-57.952 0.563-57.952-59.64 0-48.387 0-48.387 48.949-50.075 35.446-1.125 48.949-9.565 54.013-43.886 5.064-36.571 2.813-74.831 5.064-111.965 5.626-91.147 5.064-184.545 97.899-243.622z" />
<glyph unicode="&#xe91d;" d="M512 62.578c219.932 0 398.222 178.29 398.222 398.222s-178.29 398.222-398.222 398.222c-219.932 0-398.222-178.29-398.222-398.222s178.29-398.222 398.222-398.222zM512-51.2c-282.77 0-512 229.23-512 512s229.23 512 512 512c282.77 0 512-229.23 512-512s-229.23-512-512-512z" />
<glyph unicode="&#xe91e;" horiz-adv-x="960" d="M128 76.8h421.983l-421.983 361.7v-361.7zM0 716.8l896-768h-896v768z" />
<glyph unicode="&#xe91f;" glyph-name="building" data-tags="building" horiz-adv-x="1195" d="M568.889 859.022v-796.444h512v796.444h-512zM512 972.8h625.778c31.419 0 56.889-25.47 56.889-56.889v-910.222c0-31.419-25.47-56.889-56.889-56.889h-625.778c-31.419 0-56.889 25.47-56.889 56.889v910.222c0 31.419 25.47 56.889 56.889 56.889zM113.778 631.467v-568.889h341.333v568.889h-341.333zM56.889 745.244h455.111c31.419 0 56.889-25.47 56.889-56.889v-682.667c0-31.419-25.47-56.889-56.889-56.889h-455.111c-31.419 0-56.889 25.47-56.889 56.889v682.667c0 31.419 25.47 56.889 56.889 56.889zM682.667 745.244h113.778v-113.778h-113.778v113.778zM853.333 745.244h113.778v-113.778h-113.778v113.778zM682.667 517.689h113.778v-113.778h-113.778v113.778zM853.333 517.689h113.778v-113.778h-113.778v113.778zM682.667 290.133h284.444v-284.444h-284.444v284.444zM853.333 290.133h113.778v-113.778h-113.778v113.778zM227.556 517.689h113.778v-113.778h-113.778v113.778zM227.556 290.133h113.778v-113.778h-113.778v113.778z" />
<glyph unicode="&#xe920;" horiz-adv-x="1536" d="M256 802.133c-47.128 0-85.333-38.205-85.333-85.333v-512c0-47.128 38.205-85.333 85.333-85.333h1024c47.128 0 85.333 38.205 85.333 85.333v512c0 47.128-38.205 85.333-85.333 85.333h-1024zM256 972.8h1024c141.385 0 256-114.615 256-256v-512c0-141.385-114.615-256-256-256h-1024c-141.385 0-256 114.615-256 256v512c0 141.385 114.615 256 256 256z" />
<glyph unicode="&#xe921;" glyph-name="tool" data-tags="tool" d="M706.466 809.473c-20.604 2.329-41.557 1.654-62.195-2.106-42.662-7.773-81.946-28.364-112.61-59.028s-51.255-69.946-59.025-112.609c-7.774-42.664-2.364-86.683 15.518-126.191 7.322-16.179 3.853-35.204-8.704-47.761l-294.826-294.827c-8.972-8.973-14.013-21.141-14.013-33.83s5.041-24.858 14.013-33.83c8.972-8.973 21.142-14.012 33.83-14.012s24.858 5.039 33.83 14.012l294.827 294.827c12.557 12.557 31.582 16.026 47.761 8.704 39.509-17.882 83.529-23.292 126.191-15.522 42.662 7.774 81.946 28.365 112.61 59.029s51.255 69.947 59.029 112.61c3.759 20.636 4.433 41.589 2.103 62.195l-109.739-109.739c-15.949-15.633-37.397-24.393-59.733-24.393s-43.78 8.759-59.733 24.397l-0.303 0.299-68.57 68.568c-15.633 15.951-24.388 37.399-24.388 59.735s8.755 43.782 24.393 59.733l0.299 0.305 109.436 109.434zM628.975 891.318c59.729 10.883 121.357 3.304 176.67-21.726 12.762-5.775 21.875-17.444 24.384-31.224 2.513-13.78-1.903-27.914-11.806-37.818l-160.55-160.55 67.661-67.66 160.55 160.55c9.903 9.904 24.038 14.316 37.82 11.806 13.777-2.511 25.446-11.625 31.223-24.385 25.028-55.313 32.606-116.94 21.726-176.669-10.884-59.729-39.71-114.722-82.641-157.653s-97.924-71.757-157.653-82.641c-49.809-9.075-100.941-5.312-148.629 10.705l-275.106-275.102c-24.975-24.977-58.849-39.006-94.17-39.006s-69.195 14.029-94.17 39.006c-24.975 24.977-39.006 58.85-39.006 94.17s14.031 69.193 39.006 94.17l275.104 275.106c-16.017 47.686-19.782 98.818-10.705 148.629 10.883 59.729 39.708 114.723 82.639 157.653s97.924 71.757 157.653 82.64z" />
<glyph unicode="&#xe922;" horiz-adv-x="1195" d="M597.333 688.356c47.128 0 85.333 38.205 85.333 85.333s-38.205 85.333-85.333 85.333c-47.128 0-85.333-38.205-85.333-85.333s38.205-85.333 85.333-85.333zM597.333 574.578c-109.966 0-199.111 89.145-199.111 199.111s89.145 199.111 199.111 199.111c109.966 0 199.111-89.145 199.111-199.111s-89.145-199.111-199.111-199.111z" />
<glyph unicode="&#xe923;" glyph-name="mail" data-tags="mail" d="M170.667 725.334c-23.369 0-42.667-19.297-42.667-42.667v-512c0-23.369 19.297-42.667 42.667-42.667h682.667c23.369 0 42.667 19.298 42.667 42.667v512c0 23.369-19.298 42.667-42.667 42.667h-682.667zM42.667 682.667c0 70.497 57.503 128 128 128h682.667c70.498 0 128-57.503 128-128v-512c0-70.498-57.502-128-128-128h-682.667c-70.497 0-128 57.502-128 128v512zM50.38 707.135c13.513 19.305 40.117 23.999 59.422 10.486l402.198-281.538 402.202 281.538c19.302 13.513 45.905 8.818 59.422-10.486 13.513-19.305 8.815-45.908-10.487-59.422l-426.667-298.665c-14.69-10.287-34.244-10.287-48.934 0l-426.668 298.665c-19.304 13.513-23.999 40.117-10.486 59.422z" />
<glyph unicode="&#xe924;" glyph-name="copy1" data-tags="copy" d="M469.333 512c-23.565 0-42.667-19.102-42.667-42.667v-384c0-23.565 19.102-42.667 42.667-42.667h384c23.565 0 42.667 19.102 42.667 42.667v384c0 23.565-19.102 42.667-42.667 42.667h-384zM341.333 469.334c0 70.692 57.308 128 128 128h384c70.694 0 128-57.308 128-128v-384c0-70.694-57.306-128-128-128h-384c-70.692 0-128 57.306-128 128v384zM170.667 810.667c-11.316 0-22.168-4.495-30.17-12.497s-12.497-18.854-12.497-30.17v-384c0-11.315 4.495-22.17 12.497-30.17s18.854-12.497 30.17-12.497h42.667c23.564 0 42.667-19.102 42.667-42.667s-19.103-42.667-42.667-42.667h-42.667c-33.948 0-66.505 13.487-90.51 37.491s-37.49 56.563-37.49 90.509v384c0 33.948 13.486 66.505 37.49 90.51s56.562 37.49 90.51 37.49h384c33.946 0 66.505-13.486 90.509-37.49s37.491-56.562 37.491-90.51v-42.667c0-23.564-19.102-42.667-42.667-42.667s-42.667 19.103-42.667 42.667v42.667c0 11.316-4.497 22.168-12.497 30.17s-18.854 12.497-30.17 12.497h-384z" />
<glyph unicode="&#xe925;" glyph-name="book-user" data-tags="book-user" d="M277.333 810.667h533.333v-554.667h-533.333c-22.351 0-44.184-5.009-64-14.409v505.075c0 16.974 6.743 33.253 18.745 45.255s28.281 18.745 45.255 18.745zM896 810.667c0 22.632-8.99 44.337-24.994 60.34s-37.709 24.994-60.339 24.994h-533.333c-39.606 0-77.589-15.733-105.594-43.739s-43.739-65.989-43.739-105.594v-640c0-39.607 15.733-77.589 43.739-105.596s65.989-43.738 105.594-43.738h533.333c22.63 0 44.335 8.99 60.339 24.994s24.994 37.709 24.994 60.339v768zM810.667 170.667v-128h-533.333c-16.974 0-33.253 6.741-45.255 18.743s-18.745 28.284-18.745 45.257c0 16.973 6.743 33.254 18.745 45.257s28.281 18.743 45.255 18.743h533.333zM469.333 597.334c0 23.564 19.102 42.667 42.667 42.667s42.667-19.103 42.667-42.667c0-23.564-19.102-42.667-42.667-42.667s-42.667 19.103-42.667 42.667zM614.404 520.53c16.073 21.393 25.596 47.986 25.596 76.804 0 70.692-57.306 128-128 128s-128-57.308-128-128c0-28.817 9.523-55.41 25.594-76.804-6.421-4.817-12.531-10.108-18.273-15.851-32.006-32.004-49.987-75.413-49.987-120.678 0-23.565 19.103-42.667 42.667-42.667s42.667 19.102 42.667 42.667c0 22.63 8.99 44.335 24.994 60.339s37.709 24.994 60.339 24.994c22.63 0 44.335-8.99 60.339-24.994s24.994-37.709 24.994-60.339c0-23.565 19.102-42.667 42.667-42.667s42.667 19.102 42.667 42.667c0 45.265-17.98 88.674-49.988 120.678-5.743 5.743-11.849 11.034-18.274 15.851z" />
<glyph unicode="&#xe926;" glyph-name="books" data-tags="books" d="M42.667 794.483c0 56.067 45.451 101.517 101.517 101.517h88.276c56.066 0 101.517-45.451 101.517-101.517v-26.982c13.713 6.908 29.207 10.798 45.609 10.798h88.275c56.068 0 101.517-45.451 101.517-101.517v-617.932c0-56.064-45.449-101.517-101.517-101.517h-88.275c-28.95 0-55.069 12.117-73.563 31.561-18.494-19.443-44.614-31.561-73.563-31.561h-88.276c-56.067 0-101.517 45.453-101.517 101.517v735.633zM248.644 248.645v545.839c0 8.938-7.246 16.184-16.184 16.184h-88.276c-8.938 0-16.184-7.246-16.184-16.184v-545.839h120.644zM128 163.311v-104.461c0-8.939 7.246-16.183 16.184-16.183h88.276c8.938 0 16.184 7.245 16.184 16.183v104.461h-120.644zM363.402 163.311v-104.461c0-8.939 7.246-16.183 16.184-16.183h88.275c8.939 0 16.183 7.245 16.183 16.183v104.461h-120.643zM484.045 248.645v428.137c0 8.938-7.245 16.184-16.183 16.184h-88.275c-8.938 0-16.184-7.246-16.184-16.184v-428.137h120.643zM791.791 571.194c-5.039 3.137-12.049 4.887-19.661 3.693l-96.525-15.139c-7.565-1.187-12.599-4.758-15.262-8.141-2.551-3.241-3.008-6.181-2.5-8.742l60.109-303.227 140.855 22.093-59.443 299.866c-0.55 2.78-2.564 6.476-7.573 9.598zM875.413 177.959l-140.851-22.093 19.729-99.529c0.55-2.782 2.564-6.477 7.573-9.6 5.039-3.136 12.049-4.885 19.661-3.695l96.525 15.142c7.565 1.186 12.599 4.757 15.262 8.141 2.551 3.238 3.008 6.178 2.5 8.742l-20.399 102.891zM758.908 659.19c53.943 8.46 112.657-22.961 124.16-81.001l96.448-486.528c11.866-59.857-33.523-109.197-88.243-117.781l-96.525-15.138c-53.943-8.461-112.657 22.963-124.16 81.003l-96.448 486.527c-11.866 59.857 33.523 109.196 88.243 117.78l96.525 15.139z" />
<glyph unicode="&#xe927;" glyph-name="rocket" data-tags="rocket" d="M895.514 810.18c-99.81-4.765-195.063-44.329-269.009-112.172l-361.676-331.825 186.688-186.688 331.827 361.676c67.844 73.946 107.405 169.199 112.171 269.009zM568.819 760.887c94.716 86.9 218.581 135.113 347.123 135.113h22.724c23.565 0 42.667-19.103 42.667-42.667v-22.724c0-128.543-48.213-252.41-135.113-347.128l-361.937-394.496c-7.868-8.576-18.893-13.564-30.524-13.815-11.631-0.247-22.861 4.262-31.087 12.489l-249.681 249.681c-8.227 8.226-12.737 19.456-12.487 31.087s5.239 22.656 13.812 30.524l394.502 361.937zM262.627 177.293c16.662-16.661 16.662-43.674 0-60.339l-147.126-147.123c-16.663-16.666-43.677-16.666-60.34 0-16.663 16.661-16.663 43.678 0 60.339l147.126 147.123c16.662 16.666 43.677 16.666 60.34 0zM380.328 59.597c16.663-16.666 16.663-43.678 0-60.339l-29.425-29.427c-16.662-16.661-43.677-16.661-60.34 0s-16.663 43.678 0 60.339l29.425 29.427c16.662 16.661 43.677 16.661 60.34 0zM144.927 294.998c16.663-16.661 16.663-43.678 0-60.339l-29.425-29.427c-16.663-16.661-43.677-16.661-60.34 0s-16.663 43.678 0 60.339l29.425 29.427c16.662 16.661 43.677 16.661 60.34 0zM664.572 346.245c16.678-9.284 25.161-28.514 20.774-47.087l-72.973-308.966c-3.558-15.057-14.989-27.008-29.871-31.236-14.882-4.224-30.886-0.064-41.826 10.876l-117.7 117.7c-16.644 16.644-16.665 43.622-0.046 60.292l190.676 191.266c13.474 13.517 34.287 16.439 50.965 7.155zM513.438 117.748l33.472-33.472 20.753 87.863-54.225-54.391zM432.004 579.038c8.764-16.554 5.705-36.886-7.538-50.13l-191.264-191.265c-8.309-8.307-19.677-12.821-31.423-12.476s-22.829 5.517-30.636 14.302l-117.7 132.412c-10.202 11.477-13.45 27.554-8.503 42.091 4.946 14.538 17.324 25.296 32.409 28.169l308.964 58.851c18.399 3.505 36.932-5.399 45.692-21.953zM167.17 472.384l37.69-42.402 61.246 61.244-98.935-18.842z" />
<glyph unicode="&#xe928;" glyph-name="sad" data-tags="sad" d="M512-42.666c-92.825 0-183.566 27.524-260.748 79.095s-137.337 124.873-172.86 210.633c-35.523 85.76-44.817 180.126-26.708 271.168s62.809 174.669 128.447 240.306c65.637 65.638 149.265 110.337 240.306 128.446s185.408 8.815 271.168-26.708c85.76-35.523 159.061-95.678 210.633-172.86s79.095-167.922 79.095-260.748c0-124.476-49.446-243.853-137.463-331.87s-207.394-137.463-331.87-137.463zM512 810.667c-75.947 0-150.191-22.521-213.339-64.716s-112.367-102.167-141.431-172.334c-29.064-70.167-36.669-147.377-21.852-221.865s51.389-142.912 105.093-196.617c53.703-53.7 122.126-90.274 196.615-105.092 74.487-14.814 151.697-7.211 221.867 21.854 70.165 29.065 130.138 78.281 172.331 141.431 42.197 63.147 64.717 137.391 64.717 213.338 0 101.843-40.457 199.515-112.469 271.529-72.017 72.014-169.69 112.471-271.531 112.471zM682.667 213.334c-6.622 0-13.158 1.54-19.081 4.506-5.926 2.961-11.081 7.262-15.053 12.561-16.832 20.169-37.645 36.642-61.137 48.388-23.497 11.746-49.165 18.513-75.396 19.878-26.249-1.284-51.942-8.021-75.447-19.772-23.505-11.755-44.308-28.267-61.086-48.495-6.853-8.986-16.991-14.886-28.19-16.41-11.199-1.519-22.543 1.468-31.543 8.303-8.93 6.78-14.831 16.806-16.428 27.904s1.239 22.379 7.895 31.403c24.651 30.921 55.741 56.098 91.11 73.779 35.367 17.685 74.164 27.452 113.69 28.621 39.526-1.169 78.323-10.935 113.69-28.621 35.371-17.681 66.462-42.859 91.11-73.779 3.362-4.484 5.807-9.583 7.198-15.010s1.698-11.076 0.909-16.623c-0.794-5.547-2.671-10.884-5.525-15.706s-6.63-9.033-11.115-12.395c-7.386-5.538-16.367-8.533-25.6-8.533zM384 512c-11.316 0-22.168 4.495-30.17 12.497s-12.497 18.854-12.497 30.17c0 11.316 4.495 22.168 12.497 30.17s18.854 12.497 30.17 12.497c11.316 0 22.168-4.495 30.17-12.497s12.497-18.854 12.497-30.17c0-11.316-4.495-22.168-12.497-30.17s-18.854-12.497-30.17-12.497zM640 512c-11.315 0-22.17 4.495-30.17 12.497s-12.497 18.854-12.497 30.17c0 11.316 4.497 22.168 12.497 30.17s18.854 12.497 30.17 12.497c11.315 0 22.17-4.495 30.17-12.497s12.497-18.854 12.497-30.17c0-11.316-4.497-22.168-12.497-30.17s-18.854-12.497-30.17-12.497z" />
<glyph unicode="&#xe929;" glyph-name="rss" data-tags="rss" d="M170.667 426.667c94.251 0 179.541-38.144 241.365-99.968s99.968-147.115 99.968-241.365c0-23.552 19.115-42.667 42.667-42.667s42.667 19.115 42.667 42.667c0 117.803-47.787 224.555-124.971 301.696s-183.893 124.971-301.696 124.971c-23.552 0-42.667-19.115-42.667-42.667s19.115-42.667 42.667-42.667zM170.667 725.334c176.725 0 336.683-71.595 452.565-187.435s187.435-275.84 187.435-452.565c0-23.552 19.115-42.667 42.667-42.667s42.667 19.115 42.667 42.667c0 200.277-81.237 381.696-212.437 512.896s-312.619 212.437-512.896 212.437c-23.552 0-42.667-19.115-42.667-42.667s19.115-42.667 42.667-42.667zM298.667 128c0 23.552-9.6 44.928-25.003 60.331s-36.779 25.003-60.331 25.003-44.928-9.6-60.331-25.003-25.003-36.779-25.003-60.331 9.6-44.928 25.003-60.331 36.779-25.003 60.331-25.003 44.928 9.6 60.331 25.003 25.003 36.779 25.003 60.331z" />
<glyph unicode="&#xe92a;" glyph-name="file-sync" data-tags="file-sync" d="M891.733 571.734c-4.267 4.267-4.267 8.533-8.533 12.8l-298.667 298.667c-4.267 4.267-8.533 8.533-12.8 8.533-4.267 4.267-12.8 4.267-17.067 4.267h-298.667c-34.133 0-68.267-12.8-89.6-38.4s-38.4-55.467-38.4-89.6v-682.667c0-34.133 12.8-68.267 38.4-89.6 21.333-25.6 55.467-38.4 89.6-38.4h170.667v85.333h-170.667c-12.8 0-21.333 4.267-29.867 12.8s-12.8 17.067-12.8 29.867v682.667c0 12.8 4.267 21.333 12.8 29.867s17.067 12.8 29.867 12.8h256v-256c0-25.6 17.067-42.667 42.667-42.667h341.333v42.667c0 4.267 0 12.8-4.267 17.067zM597.333 750.934l153.6-153.6h-153.6v153.6zM469.333-0c0-25.6-17.067-42.667-42.667-42.667s-42.667 17.067-42.667 42.667 17.067 42.667 42.667 42.667c25.6 0 42.667-17.067 42.667-42.667zM576 213.334c25.6 0 42.667 17.067 42.667 42.667s-17.067 42.667-42.667 42.667h-21.333l21.333 21.333c0 0 0 0 0 0 17.067 17.067 38.4 29.867 64 38.4s51.2 8.533 72.533 4.267c25.6-4.267 46.933-17.067 68.267-34.133s34.133-38.4 42.667-59.733c8.533-21.333 34.133-34.133 55.467-25.6s34.133 34.133 25.6 55.467c-12.8 38.4-34.133 72.533-64 98.133s-64 42.667-102.4 55.467c-38.4 8.533-76.8 8.533-115.2-4.267s-72.533-29.867-102.4-59.733l-25.6-25.6v21.333c0 25.6-17.067 42.667-42.667 42.667s-42.667-17.067-42.667-42.667v-128c0 0 0-4.267 0-4.267 0-4.267 0-8.533 0-8.533 0-4.267 4.267-4.267 4.267-8.533 0 0 0-4.267 4.267-4.267 0 0 0 0 0 0 4.267-4.267 4.267-4.267 8.533-4.267 0 0 4.267-4.267 4.267-4.267s4.267 0 4.267 0 8.533 0 8.533 0c0 0 0 0 0 0h132.267zM960 174.934c0 4.267 0 8.533 0 8.533 0 4.267-4.267 4.267-4.267 8.533 0 0 0 4.267-4.267 4.267 0 0 0 0 0 0-4.267 4.267-4.267 4.267-8.533 4.267 0 0-4.267 4.267-4.267 4.267s-4.267 0-4.267 0-8.533 0-8.533 0c0 0 0 0 0 0h-128c-25.6 0-42.667-17.067-42.667-42.667s17.067-42.667 42.667-42.667h12.8l-21.333-21.333c0 0 0 0 0 0-17.067-17.067-38.4-29.867-64-38.4s-51.2-8.533-72.533-4.267c-25.6 4.267-46.933 17.067-68.267 34.133-17.067 17.067-34.133 38.4-42.667 59.733s-34.133 34.133-55.467 25.6c-21.333-8.533-34.133-34.133-25.6-55.467 12.8-38.4 34.133-72.533 64-98.133s64-42.667 102.4-55.467c38.4-8.533 76.8-8.533 115.2 4.267s72.533 29.867 102.4 59.733l25.6 25.6v-12.8c0-25.6 17.067-42.667 42.667-42.667s42.667 17.067 42.667 42.667v128c4.267 0 4.267 4.267 4.267 4.267z" />
<glyph unicode="&#xe92b;" glyph-name="folder-plus" data-tags="folder-plus" d="M170.667 768c-11.316 0-22.168-4.495-30.17-12.497s-12.497-18.854-12.497-30.17v-597.333c0-11.315 4.495-22.17 12.497-30.17s18.854-12.497 30.17-12.497h682.667c11.315 0 22.17 4.497 30.17 12.497s12.497 18.854 12.497 30.17v469.333c0 11.316-4.497 22.168-12.497 30.17s-18.854 12.497-30.17 12.497h-384c-14.268 0-27.588 7.13-35.503 18.999l-72.665 109.001h-190.499zM80.157 815.843c24.005 24.005 56.562 37.49 90.51 37.49h213.333c14.266 0 27.587-7.13 35.501-18.999l72.668-109.001h361.165c33.95 0 66.505-13.486 90.509-37.49s37.491-56.562 37.491-90.51v-469.333c0-33.95-13.487-66.505-37.491-90.509s-56.559-37.491-90.509-37.491h-682.667c-33.948 0-66.505 13.487-90.51 37.491s-37.49 56.559-37.49 90.509v597.333c0 33.948 13.486 66.505 37.49 90.51zM554.667 469.334c0 23.565-19.102 42.667-42.667 42.667s-42.667-19.102-42.667-42.667v-85.333h-85.333c-23.564 0-42.667-19.102-42.667-42.667s19.103-42.667 42.667-42.667h85.333v-85.333c0-23.565 19.102-42.667 42.667-42.667s42.667 19.102 42.667 42.667v85.333h85.333c23.565 0 42.667 19.102 42.667 42.667s-19.102 42.667-42.667 42.667h-85.333v85.333z" />
<glyph unicode="&#xe92c;" glyph-name="file-plus" data-tags="file-plus" d="M891.733 614.4c-4.267 4.267-4.267 8.533-8.533 12.8l-256 256c-4.267 4.267-8.533 8.533-12.8 8.533-4.267 4.267-12.8 4.267-17.067 4.267h-341.333c-34.133 0-68.267-12.8-89.6-38.4s-38.4-55.467-38.4-89.6v-682.667c0-34.133 12.8-68.267 38.4-89.6 21.333-25.6 55.467-38.4 89.6-38.4h512c34.133 0 68.267 12.8 89.6 38.4 25.6 25.6 38.4 55.467 38.4 89.6v512c0 4.267 0 12.8-4.267 17.067zM640 750.934l110.933-110.933h-110.933v110.933zM797.867 55.467c-8.533-8.533-17.067-12.8-29.867-12.8h-512c-12.8 0-21.333 4.267-29.867 12.8s-12.8 17.067-12.8 29.867v682.667c0 12.8 4.267 21.333 12.8 29.867s17.067 12.8 29.867 12.8h298.667v-213.333c0-25.6 17.067-42.667 42.667-42.667h213.333v-469.333c0-12.8-4.267-21.333-12.8-29.867zM640 341.334h-85.333v85.333c0 25.6-17.067 42.667-42.667 42.667s-42.667-17.067-42.667-42.667v-85.333h-85.333c-25.6 0-42.667-17.067-42.667-42.667s17.067-42.667 42.667-42.667h85.333v-85.333c0-25.6 17.067-42.667 42.667-42.667s42.667 17.067 42.667 42.667v85.333h85.333c25.6 0 42.667 17.067 42.667 42.667s-17.067 42.667-42.667 42.667z" />
<glyph unicode="&#xe92d;" glyph-name="corner-up-left" data-tags="corner-up-left" d="M832 533.334c-38.4 42.667-93.867 64-149.333 64h-409.6l140.8 140.8c17.067 17.067 17.067 42.667 0 59.733s-42.667 17.067-59.733 0l-213.333-213.333c-4.267-4.267-8.533-8.533-8.533-12.8-4.267-12.8-4.267-21.333 0-34.133 4.267-4.267 4.267-8.533 8.533-12.8l213.333-213.333c17.067-17.067 42.667-17.067 59.733 0s17.067 42.667 0 59.733l-140.8 140.8h409.6c34.133 0 68.267-12.8 89.6-38.4 25.6-25.6 38.4-55.467 38.4-89.6v-298.667c0-25.6 17.067-42.667 42.667-42.667s42.667 17.067 42.667 42.667v298.667c0 55.467-21.333 110.933-64 149.333z" />
<glyph unicode="&#xe92e;" glyph-name="corner-up-right" data-tags="corner-up-right" d="M891.733 571.734c-4.267 4.267-4.267 8.533-8.533 12.8l-213.333 213.333c-17.067 17.067-42.667 17.067-59.733 0s-17.067-42.667 0-59.733l140.8-140.8h-409.6c-55.467 0-110.933-21.333-149.333-64-42.667-38.4-64-93.867-64-149.333v-298.667c0-25.6 17.067-42.667 42.667-42.667s42.667 17.067 42.667 42.667v298.667c0 34.133 12.8 68.267 38.4 89.6 21.333 25.6 55.467 38.4 89.6 38.4h409.6l-140.8-140.8c-17.067-17.067-17.067-42.667 0-59.733s42.667-17.067 59.733 0l213.333 213.333c4.267 4.267 8.533 8.533 8.533 12.8 4.267 12.8 4.267 21.333 0 34.133z" />
<glyph unicode="&#xe92f;" glyph-name="hamburger" data-tags="hamburger" horiz-adv-x="1229" d="M102.4 972.8h1024c56.554 0 102.4-45.846 102.4-102.4s-45.846-102.4-102.4-102.4h-1024c-56.554 0-102.4 45.846-102.4 102.4s45.846 102.4 102.4 102.4zM102.4 563.2h1024c56.554 0 102.4-45.846 102.4-102.4s-45.846-102.4-102.4-102.4h-1024c-56.554 0-102.4 45.846-102.4 102.4s45.846 102.4 102.4 102.4zM102.4 153.6h1024c56.554 0 102.4-45.846 102.4-102.4s-45.846-102.4-102.4-102.4h-1024c-56.554 0-102.4 45.846-102.4 102.4s45.846 102.4 102.4 102.4z" />
<glyph unicode="&#xe930;" glyph-name="calendar" data-tags="calendar" d="M298.667 853.334v-42.667h-85.333c-35.328 0-67.413-14.379-90.496-37.504s-37.504-55.168-37.504-90.496v-597.333c0-35.328 14.379-67.413 37.504-90.496s55.168-37.504 90.496-37.504h597.333c35.328 0 67.413 14.379 90.496 37.504s37.504 55.168 37.504 90.496v597.333c0 35.328-14.379 67.413-37.504 90.496s-55.168 37.504-90.496 37.504h-85.333v42.667c0 23.552-19.115 42.667-42.667 42.667s-42.667-19.115-42.667-42.667v-42.667h-256v42.667c0 23.552-19.115 42.667-42.667 42.667s-42.667-19.115-42.667-42.667zM853.333 554.667h-682.667v128c0 11.776 4.736 22.4 12.501 30.165s18.389 12.501 30.165 12.501h85.333v-42.667c0-23.552 19.115-42.667 42.667-42.667s42.667 19.115 42.667 42.667v42.667h256v-42.667c0-23.552 19.115-42.667 42.667-42.667s42.667 19.115 42.667 42.667v42.667h85.333c11.776 0 22.4-4.736 30.165-12.501s12.501-18.389 12.501-30.165zM170.667 469.334h682.667v-384c0-11.776-4.736-22.4-12.501-30.165s-18.389-12.501-30.165-12.501h-597.333c-11.776 0-22.4 4.736-30.165 12.501s-12.501 18.389-12.501 30.165z" />
<glyph unicode="&#xe931;" horiz-adv-x="1195" d="M597.333 460.8c47.128 0 85.333 38.205 85.333 85.333s-38.205 85.333-85.333 85.333c-47.128 0-85.333-38.205-85.333-85.333s38.205-85.333 85.333-85.333zM597.333 347.022c-109.966 0-199.111 89.145-199.111 199.111s89.145 199.111 199.111 199.111c109.966 0 199.111-89.145 199.111-199.111s-89.145-199.111-199.111-199.111z" />
<glyph unicode="&#xe932;" glyph-name="git-branch" data-tags="git-branch" d="M853.333 682.667c0-23.595-9.515-44.843-25.003-60.331s-36.736-25.003-60.331-25.003-44.843 9.515-60.331 25.003-25.003 36.736-25.003 60.331 9.515 44.843 25.003 60.331 36.736 25.003 60.331 25.003 44.843-9.515 60.331-25.003 25.003-36.736 25.003-60.331zM341.333 170.667c0-23.595-9.515-44.843-25.003-60.331s-36.736-25.003-60.331-25.003-44.843 9.515-60.331 25.003-25.003 36.736-25.003 60.331 9.515 44.843 25.003 60.331 36.736 25.003 60.331 25.003 44.843-9.515 60.331-25.003 25.003-36.736 25.003-60.331zM723.371 517.888c-8.533-79.573-44.331-150.912-98.005-204.587s-125.013-89.515-204.587-98.005c-7.893 29.227-23.339 55.339-44.075 76.075-21.205 21.163-48.043 36.864-78.037 44.587v474.709c0 23.552-19.115 42.667-42.667 42.667s-42.667-19.115-42.667-42.667v-474.709c-29.995-7.723-56.832-23.424-77.995-44.587-30.848-30.848-50.005-73.6-50.005-120.704s19.157-89.856 50.005-120.661 73.557-50.005 120.661-50.005 89.856 19.157 120.661 50.005c21.589 21.589 37.461 48.981 45.013 79.659 102.784 9.003 195.157 54.485 264.021 123.307s114.304 161.237 123.307 264.021c30.677 7.552 58.069 23.424 79.659 45.013 30.848 30.805 50.005 73.557 50.005 120.661s-19.157 89.856-50.005 120.661-73.557 50.005-120.661 50.005-89.856-19.157-120.661-50.005-50.005-73.557-50.005-120.661 19.157-89.856 50.005-120.661c20.736-20.736 46.848-36.181 76.075-44.075z" />
<glyph unicode="&#xe933;" d="M170.667 79.171c-104.747 93.751-170.667 229.992-170.667 381.629 0 282.77 229.23 512 512 512s512-229.23 512-512c0-282.77-229.23-512-512-512v113.778c219.932 0 398.222 178.29 398.222 398.222s-178.29 398.222-398.222 398.222c-219.932 0-398.222-178.29-398.222-398.222 0-144.858 77.345-271.65 192.991-341.333h-136.102v-40.296z" />
<glyph unicode="&#xe934;" d="M512 62.578c31.419 0 56.889-25.47 56.889-56.889s-25.47-56.889-56.889-56.889c-31.419 0-56.889 25.47-56.889 56.889s25.47 56.889 56.889 56.889z" />
<glyph unicode="&#xe935;" d="M284.444 347.022c31.419 0 56.889-25.47 56.889-56.889v-227.556c0-31.419-25.47-56.889-56.889-56.889s-56.889 25.47-56.889 56.889v227.556c0 31.419 25.47 56.889 56.889 56.889z" />
<glyph unicode="&#xe936;" d="M56.889 119.467h227.556c31.419 0 56.889-25.47 56.889-56.889s-25.47-56.889-56.889-56.889h-227.556c-31.419 0-56.889 25.47-56.889 56.889s25.47 56.889 56.889 56.889z" />
<glyph unicode="&#xe937;" d="M512 688.356c31.419 0 56.889-25.47 56.889-56.889v-170.667c0-31.419-25.47-56.889-56.889-56.889s-56.889 25.47-56.889 56.889v170.667c0 31.419 25.47 56.889 56.889 56.889z" />
<glyph unicode="&#xe938;" d="M466.893 505.907c22.216 22.216 58.237 22.216 80.453 0l120.68-120.68c22.216-22.216 22.216-58.237 0-80.453s-58.237-22.216-80.453 0l-120.68 120.68c-22.216 22.216-22.216 58.237 0 80.453z" />
<glyph unicode="&#xe939;" d="M755.065 815.262h-203.68c-43.503 0-78.769 35.266-78.769 78.769s35.266 78.769 78.769 78.769h355.17c64.847 0 117.445-53.194 117.445-117.445v-355.17c0-43.503-35.266-78.769-78.769-78.769s-78.769 35.266-78.769 78.769v203.68l-338.148-338.148c-30.761-30.761-80.635-30.761-111.397 0s-30.761 80.635 0 111.397l338.148 338.148z" />
<glyph unicode="&#xe93a;" d="M157.538 815.262v-708.923h708.923v78.769c0 43.503 35.266 78.769 78.769 78.769s78.769-35.266 78.769-78.769v-117.785c0-65.291-53.137-118.523-118.181-118.523h-787.638c-65.256 0-118.181 53.289-118.181 118.181v787.638c0 65.459 52.311 118.181 118.523 118.181h117.785c43.503 0 78.769-35.266 78.769-78.769s-35.266-78.769-78.769-78.769h-78.769z" />
<glyph unicode="&#xe93b;" horiz-adv-x="712" d="M307.239 240.515v-102.801c0-75.699 61.368-137.067 137.067-137.067h68.534v-102.801h137.067v102.801c0 75.699-61.368 137.067-137.067 137.067h-68.534v102.801h-137.067z" />
<glyph unicode="&#xe93c;" horiz-adv-x="960" d="M704 588.8c70.692 0 128 57.308 128 128s-57.308 128-128 128c-70.692 0-128-57.308-128-128s57.308-128 128-128zM704 460.8c-141.385 0-256 114.615-256 256s114.615 256 256 256c141.385 0 256-114.615 256-256s-114.615-256-256-256z" />
<glyph unicode="&#xe93d;" d="M512 745.244c31.419 0 56.889-25.47 56.889-56.889v-227.556c0-31.419-25.47-56.889-56.889-56.889s-56.889 25.47-56.889 56.889v227.556c0 31.419 25.47 56.889 56.889 56.889z" />
<glyph unicode="&#xe93e;" glyph-name="component" data-tags="component" d="M618.778 808.869c-24.934 7.35-50.893-7.5-58.082-33l-187.732-672.001c-7.187-25.498 7.334-52.049 32.267-59.401 24.931-7.347 50.894 7.501 58.079 33.003l187.733 671.999c7.189 25.5-7.334 52.050-32.265 59.4zM736.99 628.719c-18.334-18.75-18.334-49.2 0-67.95l130.974-134.102-131.119-134.097c-18.334-18.752-18.334-49.199 0-67.951 18.33-18.752 48.107-18.752 66.436 0l164.267 168c18.334 18.752 18.334 49.199 0 67.951l-164.267 167.999c-18.33 18.75-48.107 18.75-66.436 0l0.145 0.15zM287.163 628.719c-18.333 18.75-48.107 18.75-66.44 0l-164.267-168c-18.333-18.752-18.333-49.199 0-67.951l164.267-168c18.333-18.748 48.107-18.748 66.44 0 18.333 18.752 18.333 49.199 0 67.951l-131.12 133.948 131.12 134.102c18.333 18.75 18.333 49.2 0 67.95z" />
<glyph unicode="&#xe93f;" d="M512 347.022c31.419 0 56.889-25.47 56.889-56.889s-25.47-56.889-56.889-56.889c-31.419 0-56.889 25.47-56.889 56.889s25.47 56.889 56.889 56.889z" />
<glyph unicode="&#xe940;" horiz-adv-x="1536" d="M512 546.133c47.128 0 85.333-38.205 85.333-85.333s-38.205-85.333-85.333-85.333c-47.128 0-85.333 38.205-85.333 85.333s38.205 85.333 85.333 85.333z" />
<glyph unicode="&#xe943;" horiz-adv-x="1536" d="M768 546.133c47.128 0 85.333-38.205 85.333-85.333s-38.205-85.333-85.333-85.333c-47.128 0-85.333 38.205-85.333 85.333s38.205 85.333 85.333 85.333z" />
<glyph unicode="&#xe946;" horiz-adv-x="1536" d="M1024 546.133c47.128 0 85.333-38.205 85.333-85.333s-38.205-85.333-85.333-85.333c-47.128 0-85.333 38.205-85.333 85.333s38.205 85.333 85.333 85.333z" />
<glyph unicode="&#xe949;" horiz-adv-x="1195" d="M56.889 62.578h1080.889c31.419 0 56.889-25.47 56.889-56.889s-25.47-56.889-56.889-56.889h-1080.889c-31.419 0-56.889 25.47-56.889 56.889s25.47 56.889 56.889 56.889z" />
<glyph unicode="&#xe94b;" horiz-adv-x="1195" d="M595.574 403.911c142.447 0 266.356-92.092 309.796-223.616l118.63-1.945c-45.517 194.495-220.056 339.339-428.426 339.339-203.341 0-374.466-137.938-424.907-325.347l118.64-1.945c46.434 126.391 167.743 213.514 306.267 213.514zM595.574 403.911c142.447 0 266.356-92.092 309.796-223.616l118.63-1.945c-45.517 194.495-220.056 339.339-428.426 339.339-203.341 0-374.466-137.938-424.907-325.347l118.64-1.945c46.434 126.391 167.743 213.514 306.267 213.514z" />
<glyph unicode="&#xe94c;" horiz-adv-x="1195" d="M1080.889 62.578v113.778h-967.111v-113.778c-62.838 0-113.778 50.94-113.778 113.778v682.667c0 62.838 50.94 113.778 113.778 113.778h967.111c62.838 0 113.778-50.94 113.778-113.778v-682.667c0-62.838-50.94-113.778-113.778-113.778zM113.778 859.022v-682.667h967.111v682.667h-967.111z" />
<glyph unicode="&#xe94d;" horiz-adv-x="1195" d="M595.574 176.356c142.423 0 266.463-92.836 309.865-225.6l118.561-1.956c-45.517 195.638-220.056 341.333-428.426 341.333-203.341 0-374.466-138.748-424.907-327.258l118.556-1.955c46.398 127.596 167.837 215.436 306.351 215.436zM595.574 176.356c142.423 0 266.463-92.836 309.865-225.6l118.561-1.956c-45.517 195.638-220.056 341.333-428.426 341.333-203.341 0-374.466-138.748-424.907-327.258l118.556-1.955c46.398 127.596 167.837 215.436 306.351 215.436z" />
<glyph unicode="&#xe94e;" horiz-adv-x="712" d="M71.377 721.878v-176.773c0-136.679 111.576-247.481 249.212-247.481h71.204c137.636 0 249.212 110.802 249.212 247.481v176.773h-569.626zM-35.428 827.943h783.237v-282.836c0-195.257-159.394-353.544-356.017-353.544h-71.204c-196.622 0-356.017 158.287-356.017 353.544v282.836z" />
<glyph unicode="&#xe94f;" horiz-adv-x="712" d="M184.857 1023.752c40.553 0 73.429-32.876 73.429-73.429v-146.856c0-40.553-32.876-73.429-73.429-73.429s-73.429 32.876-73.429 73.429v146.856c0 40.553 32.876 73.429 73.429 73.429z" />
<glyph unicode="&#xe950;" horiz-adv-x="712" d="M527.524 1023.752c40.553 0 73.429-32.876 73.429-73.429v-146.856c0-40.553-32.876-73.429-73.429-73.429s-73.429 32.876-73.429 73.429v146.856c0 40.553 32.876 73.429 73.429 73.429z" />
<glyph unicode="&#xe951;" glyph-name="arrow-down1" data-tags="arrow-down" horiz-adv-x="1609" d="M200.624 875.475c-27.040 30.011-73.289 32.418-103.3 5.378s-32.418-73.289-5.378-103.3l712.624-790.898 712.624 790.898c27.040 30.011 24.633 76.259-5.378 103.3s-76.259 24.633-103.3-5.378l-603.947-670.283-603.947 670.283z" />
<glyph unicode="&#xe952;" glyph-name="arrow-right" data-tags="arrow-right" horiz-adv-x="652" d="M50.706 833.902c-19.098 17.207-20.63 46.639-3.422 65.736s46.639 20.63 65.736 3.422l503.299-453.488-503.299-453.488c-19.098-17.208-48.529-15.675-65.736 3.422s-15.675 48.529 3.422 65.736l426.544 384.33-426.544 384.33z" />
<glyph unicode="&#xe954;" horiz-adv-x="1182" d="M78.769 815.262h1024c43.503 0 78.769-35.266 78.769-78.769s-35.266-78.769-78.769-78.769h-1024c-43.503 0-78.769 35.266-78.769 78.769s35.266 78.769 78.769 78.769z" />
<glyph unicode="&#xe955;" horiz-adv-x="1182" d="M78.769 263.877h1024c43.503 0 78.769-35.266 78.769-78.769s-35.266-78.769-78.769-78.769h-1024c-43.503 0-78.769 35.266-78.769 78.769s35.266 78.769 78.769 78.769z" />
<glyph unicode="&#xe956;" horiz-adv-x="1182" d="M393.846 66.954c65.255 0 118.154 52.899 118.154 118.154s-52.899 118.154-118.154 118.154c-65.255 0-118.154-52.899-118.154-118.154s52.899-118.154 118.154-118.154zM393.846-51.2c-130.509 0-236.308 105.799-236.308 236.308s105.799 236.308 236.308 236.308c130.509 0 236.308-105.799 236.308-236.308s-105.799-236.308-236.308-236.308z" />
<glyph unicode="&#xe957;" horiz-adv-x="1182" d="M787.692 618.338c65.255 0 118.154 52.899 118.154 118.154s-52.899 118.154-118.154 118.154c-65.255 0-118.154-52.899-118.154-118.154s52.899-118.154 118.154-118.154zM787.692 500.185c-130.509 0-236.308 105.799-236.308 236.308s105.799 236.308 236.308 236.308c130.509 0 236.308-105.799 236.308-236.308s-105.799-236.308-236.308-236.308z" />
<glyph unicode="&#xe958;" d="M512 62.578c219.932 0 398.222 178.29 398.222 398.222s-178.29 398.222-398.222 398.222c-219.932 0-398.222-178.29-398.222-398.222s178.29-398.222 398.222-398.222zM512-51.2c-282.77 0-512 229.23-512 512s229.23 512 512 512c282.77 0 512-229.23 512-512s-229.23-512-512-512z" />
</font>
</defs>
</svg>
